<?xml version="1.0" encoding="UTF-8"?>
<svg width="40px" height="40px" viewBox="0 0 40 40" version="1.1" xmlns="http://www.w3.org/2000/svg" xmlns:xlink="http://www.w3.org/1999/xlink">
    <title>binance_coin</title>
    <g id="03_ui_kit" stroke="none" stroke-width="1" fill="none" fill-rule="evenodd">
        <g id="06_logos" transform="translate(-765.000000, -416.000000)">
            <g id="Group-22" transform="translate(749.000000, 400.000000)">
                <g id="binance_coin" transform="translate(16.000000, 16.000000)">
                    <rect id="frame" x="0" y="0" width="40" height="40"></rect>
                    <path d="M20,0 C31.045695,-2.02906125e-15 40,8.954305 40,20 C40,31.045695 31.045695,40 20,40 C8.954305,40 1.3527075e-15,31.045695 0,20 C-1.3527075e-15,8.954305 8.954305,2.02906125e-15 20,0 Z" id="shape" fill="#F3BA2F" fill-rule="nonzero"></path>
                    <path d="M25.8289305,22.390906 L29.2208158,25.7790002 L29.2191572,25.7808958 L20.000053,35 L10.7790533,25.7792372 L14.174019,22.3937494 L20.000053,28.2195465 L25.8289305,22.390906 Z M20.000053,16.5582374 L23.4400385,19.9982229 L23.4386168,19.9982229 L23.4416971,19.9998815 L23.4400385,20.0017771 L20.000053,23.4417626 L16.5584089,19.9998815 L16.5631479,19.9951426 L17.1657021,19.3925883 L17.4576199,19.1004336 L20.000053,16.5582374 Z M31.6105039,16.6111352 L35.0004355,20.0010668 L31.6103363,23.3911659 L28.2204048,20.0012343 L31.6105039,16.6111352 Z M8.39009914,16.609538 L11.7800307,19.9994696 L8.38993159,23.3895687 L5,19.9996371 L8.39009914,16.609538 Z M20.000053,5 L29.2191572,14.2193411 L25.8291674,17.6093309 L20.000053,11.7804535 L14.174019,17.6062506 L10.7840291,14.2162608 L20.000053,5 Z" id="shape" fill="#FFFFFF" fill-rule="nonzero"></path>
                </g>
            </g>
        </g>
    </g>
</svg>