<?xml version="1.0" encoding="UTF-8"?>
<svg width="88px" height="88px" viewBox="0 0 88 88" version="1.1" xmlns="http://www.w3.org/2000/svg" xmlns:xlink="http://www.w3.org/1999/xlink">
    <title>coinbase-new-2021-seeklogo.com</title>
    <g id="03_ui_kit" stroke="none" stroke-width="1" fill="none" fill-rule="evenodd">
        <g id="06_logos" transform="translate(-193.000000, -428.000000)" fill-rule="nonzero">
            <g id="Group-24" transform="translate(165.000000, 400.000000)">
                <g id="Group" transform="translate(28.000000, 28.000000)">
                    <circle id="Oval" fill="#3259A5" cx="44" cy="44" r="44"></circle>
                    <path d="M59.1761637,46.8696966 C57.8319374,53.9925855 51.5820404,59.3785528 44.0694769,59.3785528 C35.5751751,59.3785528 28.6909241,52.4943018 28.6909241,44 C28.6909241,35.5056982 35.5751751,28.6214472 44.0694769,28.6214472 C51.5820404,28.6214472 57.8319374,34.0104353 59.1761637,41.1303034 L74.6936702,41.1303034 C73.246739,25.4889469 60.0884251,13.2428944 44.0694769,13.2428944 C27.0808733,13.2428944 13.3123713,27.0144171 13.3123713,44 C13.3123713,60.9886036 27.083894,74.7571056 44.0694769,74.7571056 C60.0884251,74.7571056 73.246739,62.5110531 74.6936702,46.8696966 L59.1761637,46.8696966 Z" id="Path" fill="#FFFFFF"></path>
                </g>
            </g>
        </g>
    </g>
</svg>