<?xml version="1.0" encoding="UTF-8"?>
<svg width="165px" height="52px" viewBox="0 0 165 52" version="1.1" xmlns="http://www.w3.org/2000/svg" xmlns:xlink="http://www.w3.org/1999/xlink">
    <title>Etoro_logo</title>
    <g id="03_ui_kit" stroke="none" stroke-width="1" fill="none" fill-rule="evenodd">
        <g id="06_logos" transform="translate(-878.000000, -481.000000)" fill="#5C9F04" fill-rule="nonzero">
            <g id="Group-22-Copy-3" transform="translate(853.000000, 400.000000)">
                <g id="Etoro_logo" transform="translate(25.000000, 81.000000)">
                    <path d="M15.2255126,0.00115247271 C14.6947324,-0.0262011124 14.3435615,0.442441354 14.3435615,0.442441354 C14.3435615,0.442441354 8.61740278,7.34344313 5.24625423,11.5023913 C1.87475288,15.6612793 0.657107919,18.5570213 0.657107919,18.5570213 C-1.71368534,24.5449356 3.09311649,28.4644774 3.09311649,28.4644774 C8.09582661,32.6015782 13.5332841,32.5797217 13.5332841,32.5797217 C13.446343,28.7910062 13.5983615,26.5483518 13.5983615,26.5483518 C13.968173,22.520135 18.2526458,18.5354832 18.2526458,18.5354832 C16.7945138,18.6481025 13.8826006,18.6417529 12.2760432,17.1872394 C10.6696496,15.7327001 11.6854352,12.2797632 11.6854352,12.2797632 L15.8436639,1.24655517 C15.8436639,1.24655517 16.3634759,0.489536921 15.6192529,0.111152702 C15.4796354,0.0401927265 15.3476646,0.00750626154 15.2252157,0.00115247271 L15.2255126,0.00115247271 Z M149.744003,0.00115247272 C149.621653,0.0041679074 149.489263,0.0402228903 149.349218,0.111152702 C148.603548,0.489536921 149.124495,1.24655517 149.124495,1.24655517 L153.29086,12.2797632 C153.29086,12.2797632 154.308692,15.7327045 152.698992,17.1872394 C151.08943,18.6417574 148.171423,18.6480936 146.710373,18.5354832 C146.710373,18.5354832 151.003705,22.5201309 151.374251,26.5483518 C151.374251,26.5483518 151.526647,28.7910062 151.439369,32.5797229 C151.439369,32.5797229 156.888009,32.6016034 161.900658,28.4644774 C161.900658,28.4644774 166.717137,24.5449356 164.341568,18.5570213 C164.341568,18.5570213 163.121376,15.6612793 159.743308,11.5023913 C156.365167,7.34344313 150.627911,0.442441354 150.627911,0.442441354 C150.627911,0.442441354 150.275764,-0.0261278912 149.743922,0.00115247272 L149.744003,0.00115247272 Z M29.9622311,17.7684894 C29.9622311,17.7684894 18.2631406,17.72421 16.7621689,28.0659463 L16.7621689,41.634063 C16.7621689,41.634063 16.9389119,51.2685578 30.5360622,51.9756878 C30.5360622,51.9756878 37.6875839,52.7269835 42.8528372,45.8767295 L37.0257449,42.0318346 C37.0257449,42.0318346 34.2444832,45.6115117 30.668631,45.3905383 C27.0928652,45.1695712 23.6936186,43.8437151 23.6936186,40.1755208 L23.6936186,37.1704073 L42.0140099,37.1704073 C42.0140099,37.1704073 43.2945126,37.4354394 43.2945126,35.137289 L43.2945126,28.3753349 C43.2945126,28.3753349 43.4711753,18.2104579 29.9622311,17.7684894 Z M133.904567,17.86025 C133.904567,17.86025 122.168328,18.0820121 120.507446,28.390192 L120.507446,41.7465916 C120.507446,41.7465916 120.950451,50.5028604 133.683043,51.6666727 C133.683043,51.6666727 146.416026,52.4428141 148.021455,41.4141822 L148.021455,27.3929704 C148.021455,27.3929704 146.858926,18.3036109 133.904567,17.86025 Z M86.1029595,17.9486343 C86.1029595,17.9486343 74.3666324,18.1704138 72.7058987,28.4785892 L72.7058987,41.8346144 C72.7058987,41.8346144 73.1488147,50.5912516 85.8816179,51.7550734 C85.8816179,51.7550734 98.6143929,52.530837 100.219853,41.5022082 L100.219853,27.4809627 C100.219853,27.4809627 99.0570918,18.3919996 86.1029595,17.9486343 Z M117.865569,18.0544734 C105.781468,18.2072013 104.352024,27.7595345 104.352024,27.7595345 L104.352024,51.5389205 L111.179326,51.5389205 L111.179326,28.8180626 C111.179326,28.8180626 112.387808,25.1575831 116.661311,24.8929509 C116.661311,24.8929509 118.512051,19.644342 121.90436,18.3211732 C120.668772,18.1523303 119.518899,18.0674523 118.449188,18.0544734 C118.252055,18.0538358 118.057453,18.0538358 117.865569,18.0544734 L117.865569,18.0544734 Z M59.8223661,18.4567349 C59.3580378,18.4550032 58.889215,18.457585 58.4176496,18.4740523 C50.8707352,18.7287078 47.9453333,19.3232157 43.5359281,20.6390098 C43.5359281,20.6390098 46.3763757,23.355282 46.5035603,26.4961952 C46.5035603,26.4961952 51.5489825,25.0956654 54.6864887,25.2229998 L54.6864887,51.5387946 L61.5549135,51.5387946 L61.5549135,25.392729 C61.5549135,25.392729 66.7700399,25.3080276 69.5259924,26.5389437 C69.5259924,26.5389437 69.2291761,23.907291 72.748368,20.6390261 C72.748368,20.6390261 66.7861715,18.5125663 59.8223661,18.4566187 L59.8223661,18.4567349 Z M30.748748,24.4825394 C33.8444265,24.5093751 36.4971858,26.4726621 36.5398501,28.6847279 L36.5398501,31.4692112 L23.6936186,31.4692112 L23.6936186,28.198549 C23.6936186,28.198549 25.1968021,24.6543112 30.4479338,24.4862655 C30.5485447,24.4849746 30.6490019,24.4841244 30.748748,24.4845337 L30.748748,24.4825394 Z M134.01551,24.6771762 C139.662252,24.6217711 141.046188,27.0046657 141.046188,28.6672647 L141.046188,40.139488 C141.046188,40.139488 140.27095,44.6838964 134.458338,44.5730491 C128.645408,44.4622082 127.427628,41.5247838 127.427628,39.2525497 L127.427628,29.0550221 C127.427628,29.0550221 128.368973,24.73259 134.01551,24.6771762 L134.01551,24.6771762 Z M86.2138269,24.7651902 C91.8605624,24.7097981 93.2444673,27.0930501 93.2444673,28.7556704 L93.2444673,40.2275109 C93.2444673,40.2275109 92.4692668,44.7719192 86.6565385,44.6610626 C80.843741,44.5502437 79.6259736,41.6131813 79.6259736,39.3409472 L79.6259736,29.1434153 C79.6259736,29.1434153 80.5672298,24.8206081 86.2138269,24.7651902 L86.2138269,24.7651902 Z" id="path828"></path>
                </g>
            </g>
        </g>
    </g>
</svg>