<?xml version="1.0" encoding="UTF-8"?>
<svg width="82px" height="71px" viewBox="0 0 82 71" version="1.1" xmlns="http://www.w3.org/2000/svg" xmlns:xlink="http://www.w3.org/1999/xlink">
    <title>ftx-token-ftt-logo</title>
    <g id="03_ui_kit" stroke="none" stroke-width="1" fill="none" fill-rule="evenodd">
        <g id="06_logos" transform="translate(-364.000000, -428.000000)" fill-rule="nonzero">
            <g id="Group-22-Copy" transform="translate(341.000000, 400.000000)">
                <g id="ftx-token-ftt-logo" transform="translate(23.000000, 28.000000)">
                    <path d="M24.0046489,0.0045062527 C43.3337376,-0.00150208423 62.664039,-0.00150208423 81.9955532,0.0045062527 C82.0014823,6.33592784 82.0014823,12.666257 81.9955532,18.9954937 C62.6659255,19.0015021 43.3356241,19.0015021 24.0046489,18.9954937 C23.9984504,12.6640722 23.9984504,6.33374299 24.0046489,0.0045062527 Z" id="Path" fill="#02A6C2"></path>
                    <path d="M0.0245657889,26.0245655 C6.34043012,25.9918115 12.6573863,25.9918115 18.9754342,26.0245655 C19.0081886,32.3403595 19.0081886,38.6572452 18.9754342,44.9752228 C12.6576592,45.0077038 6.34070307,45.0082497 0.0245657889,44.9768605 C-0.0081885963,38.6599747 -0.0081885963,32.3425431 0.0245657889,26.0245655 Z" id="Path" fill="#5FCADE"></path>
                    <path d="M24.0213632,26.022524 C37.674579,25.992492 51.3268716,25.992492 64.9782412,26.022524 C65.0072529,32.3398858 65.0072529,38.6583396 64.9782412,44.9778855 C51.3252892,45.0073715 37.6729965,45.0073715 24.0213632,44.9778855 C23.9928789,38.6602507 23.9928789,32.3417969 24.0213632,26.022524 Z" id="Path" fill="#5FCADE"></path>
                    <path d="M23.0466669,52.0513574 C29.3489242,51.9828809 35.6500901,51.9828809 41.9501647,52.0513574 C42.0156427,58.3492883 42.0165976,64.6502202 41.9530294,70.954153 C35.6507722,71.0163548 29.3497427,71.0152635 23.0499408,70.9508792 C22.9844628,64.6534939 22.9833715,58.3536533 23.0466669,52.0513574 Z" id="Path" fill="#ABEBF4"></path>
                </g>
            </g>
        </g>
    </g>
</svg>