<?xml version="1.0" encoding="UTF-8"?>
<svg width="49px" height="66px" viewBox="0 0 49 66" version="1.1" xmlns="http://www.w3.org/2000/svg" xmlns:xlink="http://www.w3.org/1999/xlink">
    <title>Robinhood_logo</title>
    <g id="03_ui_kit" stroke="none" stroke-width="1" fill="none" fill-rule="evenodd">
        <g id="06_logos" transform="translate(-533.000000, -423.000000)" fill="#00C805" fill-rule="nonzero">
            <g id="Group-24-Copy-2" transform="translate(501.000000, 400.000000)">
                <g id="Robinhood_logo" transform="translate(32.000000, 23.000000)">
                    <path d="M40.3188657,0.00395509376 C37.6207782,-0.0542911377 34.4130034,0.531167382 30.7793288,1.73612131 C30.2342193,1.92835785 29.80329,2.23202925 29.4151962,2.61626252 C25.7194257,6.10502003 22.1241291,9.80353588 18.7257041,13.6273171 L18.4649726,13.9175655 C18.3927458,13.9997814 18.383926,14.1222662 18.437083,14.217186 C18.492147,14.3133043 18.5996529,14.3629214 18.7071111,14.3389518 L19.088888,14.2593726 C24.5656803,13.0820557 30.0952244,12.1782803 35.5188836,11.5815081 C35.8759175,11.5419582 36.2442502,11.6649224 36.5105358,11.909221 C36.7768214,12.1559885 36.9320732,12.5080067 36.9248982,12.8736396 C36.8352703,18.2865841 37.0273983,23.7262788 37.5068602,29.0437762 L37.5395172,29.3902095 C37.5514358,29.496395 37.6241393,29.5819666 37.7304533,29.6102508 C37.7495231,29.6150447 37.7671626,29.6198661 37.7909998,29.6198661 C37.8710929,29.6210371 37.9516627,29.5829254 38.000529,29.5122149 L38.2007617,29.2266406 C41.2564789,24.8421136 44.5832015,20.5798557 48.0801696,16.5489528 C48.471839,16.1004808 48.5747204,15.8183821 48.6481629,15.4113296 C49.7491327,8.32573551 48.0499202,3.08549225 46.5298206,1.75987523 C45.2097152,0.608948872 43.2942276,0.0685293108 40.319104,0.00426669911 L40.3188657,0.00395509376 Z M31.9292841,14.3576481 L31.5940612,14.4043889 C26.3614574,15.1290392 21.0643501,16.1329597 15.8484561,17.386548 C15.3314268,17.5318041 14.9994697,17.8696802 14.926647,17.9483245 C11.0230874,22.6492508 7.32579135,27.5970405 3.93451754,32.6671952 C3.76503489,32.9235505 3.74834884,33.5379644 3.74834884,33.5379644 C3.74834884,33.5379644 4.59914695,40.1423919 5.84342607,45.0078218 C2.7602245,53.9239536 0.00981438346,65.6722664 0.00981438346,65.6722664 C-0.0116391158,65.7484899 0.00266321704,65.8280691 0.0470004489,65.8923077 C0.0934830306,65.9565464 0.167140045,65.9975345 0.247233109,65.9999664 L2.00243923,65.9999664 C2.11352068,66.0017292 2.2102998,65.9340149 2.24920215,65.8314249 L2.37029523,65.4990378 C4.16144789,60.5861719 6.20308206,55.7362983 8.45994251,51.0095806 C8.98536254,49.9084872 10.0941032,47.6856624 10.0941032,47.6856624 C10.2762196,47.3248234 11.1268985,45.6841972 11.3185498,45.3167905 L11.3512068,45.2513534 C17.0339765,34.4716538 23.9615736,24.3039712 31.9340754,15.0317943 L32.1529011,14.7789865 C32.2203604,14.6984485 32.2344243,14.5817163 32.185558,14.4887381 C32.1331162,14.3950168 32.0310928,14.3437218 31.9294986,14.3576242 L31.9292841,14.3576481 Z M34.3409434,16.3894349 C34.2424957,16.3522819 34.1290305,16.3774501 34.061595,16.4596659 L33.8427694,16.7171478 C24.5466106,27.5280798 16.7339612,39.5273788 10.6201192,52.3813633 L10.4756656,52.6809838 C10.429183,52.7759036 10.447061,52.8902388 10.5176191,52.9665581 C10.5660087,53.0168944 10.6298924,53.0454183 10.6992588,53.0462865 C10.7302472,53.0473358 10.7700553,53.0413434 10.8017588,53.0269616 L11.1090206,52.8958477 C16.3302779,50.7206985 21.6640231,48.8360614 26.9617025,47.296683 C27.2787375,47.2041602 27.5428063,46.9828724 27.692647,46.6880938 C30.0152029,42.1366661 35.4071585,33.3268877 35.4071585,33.3268877 C35.5456528,33.1281793 35.5141876,32.8306442 35.5141876,32.8306442 C35.5141876,32.8306442 34.5670872,22.2932297 34.5085668,16.9601041 L34.5037993,16.623043 C34.4990319,16.5173369 34.4375319,16.4243347 34.3407527,16.3888596 L34.3409434,16.3894349 Z M20.5553777,51.7774242 L20.1223984,51.9272344 C17.3156371,52.8650227 13.1631932,54.3064372 9.43755463,56.0282965 C9.23803709,56.1224972 9.10700389,56.3841018 9.10700389,56.3841018 C9.03763757,56.5444587 8.95349218,56.7447491 8.85559271,56.9692967 L8.84129038,56.9973412 C8.42394831,57.9525314 7.84479918,59.3900628 7.59822696,59.9748262 L7.40729081,60.4383032 C7.37749429,60.5116503 7.3953722,60.5936265 7.4537734,60.6489964 C7.48833737,60.6820745 7.52814553,60.6986135 7.57939555,60.7005311 C7.6056165,60.7005311 7.63565139,60.6957372 7.66330257,60.6813554 L8.11489873,60.466108 C9.13408297,59.9785894 10.4260127,59.2400848 11.7789419,58.5934797 L11.8254245,58.56951 C14.3981519,57.3423362 17.3017162,55.9572984 19.0510822,55.1191759 C19.0510822,55.1179774 19.3326713,54.9664892 19.474765,54.6837913 L20.7830232,52.0433913 C20.8175872,51.9743588 20.8075755,51.8916635 20.759186,51.8326982 C20.706029,51.775171 20.6271278,51.7523999 20.5544242,51.7766092 L20.5553777,51.7774242 Z" id="path127"></path>
                </g>
            </g>
        </g>
    </g>
</svg>