<?xml version="1.0" encoding="UTF-8"?>
<svg width="28px" height="28px" viewBox="0 0 28 28" version="1.1" xmlns="http://www.w3.org/2000/svg" xmlns:xlink="http://www.w3.org/1999/xlink">
    <g id="01_main" stroke="none" stroke-width="1" fill="none" fill-rule="evenodd">
        <g id="3.-For-Employee" transform="translate(-339.000000, -3221.000000)">
            <g id="Group-14-Copy-3" transform="translate(0.000000, 2751.000000)">
                <g id="Group-9" transform="translate(165.000000, 387.000000)">
                    <g id="Group-Copy-8" transform="translate(160.000000, 69.000000)">
                        <g id="Group-Copy-15" transform="translate(14.000000, 14.000000)">
                            <rect id="Rectangle" x="0" y="0" width="28" height="28"></rect>
                            <circle id="Combined-Shape" fill="#3CC8C8" fill-rule="nonzero" cx="14" cy="14" r="11.6666667"></circle>
                            <path d="M13.7996215,6.46132114 C14.1556238,6.27570863 14.590157,6.70632182 14.4006898,7.06199747 C14.2908642,7.35188226 13.874363,7.42897581 13.6616371,7.20801787 C13.4364978,6.99587995 13.509998,6.57670013 13.7996215,6.46132114 M9.97062027,6.87396761 C10.1868742,6.78491804 10.4606216,6.98307458 10.4385389,7.2187979 C10.461471,7.47464394 10.1486541,7.66306579 9.92821882,7.54141479 C9.63617801,7.42832248 9.66956344,6.95419717 9.97062027,6.87403295 M17.8127979,7.54860147 C17.4748276,7.50776803 17.4213848,6.9764759 17.7467457,6.86913293 C17.9991291,6.7460446 18.2306057,6.9768679 18.2675191,7.21605389 C18.214599,7.42028645 18.0435558,7.6073363 17.8127979,7.54827481 M10.841712,8.50338544 C11.2032677,8.27471814 11.7191411,8.61523641 11.6635423,9.03520024 C11.6447915,9.45921474 11.0815513,9.70486875 10.7638345,9.41818529 C10.4567669,9.19304601 10.5031537,8.67645392 10.841712,8.50351611 M16.3608259,8.74616477 C16.522265,8.33090496 17.1758615,8.31783826 17.3594486,8.72290604 C17.5408798,9.03781358 17.3177005,9.42778932 16.9944303,9.53480561 C16.5661691,9.61477383 16.1594027,9.15182056 16.3610219,8.74649144 M13.3384975,9.51108955 C13.3349695,9.15378056 13.6603958,8.8875465 13.9999994,8.86324243 C14.225204,8.90838789 14.4707273,9.00436282 14.5673556,9.23165811 C14.7474148,9.54525898 14.5875437,9.97685217 14.2621828,10.1207819 C14.1134183,10.2041475 13.9374752,10.1730487 13.7754481,10.1631833 C13.5277687,10.0415977 13.3191588,9.80313035 13.3385629,9.51115488 M7.64428986,10.031667 C7.97455077,9.82861042 8.42012533,10.1991821 8.29507698,10.5579284 C8.22621546,10.8682626 7.80906098,10.994487 7.57059365,10.7963958 C7.31579295,10.6107832 7.35636506,10.1644247 7.64428986,10.031667 M19.8718489,10.0310136 C20.1520643,9.81345305 20.6144296,10.0630271 20.5810442,10.4164814 C20.5998602,10.7390983 20.2000845,10.9823349 19.9218944,10.8162571 C19.6155455,10.6785994 19.5843161,10.2072835 19.8718489,10.030687 M14.939822,10.6729808 C15.4021872,10.506903 15.9514461,10.7056475 16.2150015,11.117902 C16.5626411,11.6218847 16.3776819,12.3893575 15.8381578,12.6785236 C15.2791642,13.0205446 14.4628873,12.7307904 14.2564334,12.106398 C14.0220168,11.5475352 14.363515,10.8481399 14.939822,10.6729808 M12.2268478,10.7283182 C12.7393239,10.4865842 13.4289845,10.6891181 13.6765331,11.2135502 C13.9678553,11.723805 13.7425853,12.4343069 13.2218119,12.6977317 C12.7003851,12.9938885 11.9647298,12.7695985 11.7126077,12.2215157 C11.429387,11.6917916 11.6806596,10.9722736 12.2268478,10.7283182 M9.51034566,11.6570341 C9.54954577,11.3268386 9.86079463,11.112022 10.1750488,11.0897432 C10.5136724,11.1305767 10.7841532,11.3935441 10.8209359,11.736545 C10.7987225,12.0757566 10.5365392,12.4073895 10.1770742,12.4052989 C9.78154508,12.4393376 9.43482012,12.0459645 9.51034566,11.6572955 M17.5339544,11.1618061 C17.9400022,10.9254294 18.5038304,11.2695411 18.4857984,11.7360223 C18.5136305,12.2302704 17.8896301,12.5788247 17.485281,12.2886785 C17.0652518,12.0472712 17.0979839,11.367476 17.5339544,11.1618714 M11.1227768,12.9035322 C11.5976861,12.7728652 12.1406729,12.9966978 12.3735869,13.433191 C12.6283876,13.8725589 12.524442,14.4829046 12.1281942,14.8051948 C11.6199648,15.2778828 10.6826902,15.0880889 10.4122095,14.4429858 C10.101418,13.8516522 10.478915,13.0591567 11.1227768,12.9034669 M16.2685096,12.9010496 C16.7301562,12.7690105 17.2724897,12.946783 17.5206917,13.3675308 C17.848862,13.8485815 17.6921922,14.5660088 17.2036935,14.8760817 C16.6919361,15.2361347 15.8993099,15.0470595 15.6177225,14.4840806 C15.2763549,13.9016976 15.6198785,13.0786914 16.2685096,12.9010496 M8.06830436,13.4498511 C8.47853349,13.294684 8.93325474,13.7473799 8.76704628,14.154081 C8.66558334,14.524522 8.1434379,14.6617224 7.87367582,14.388367 C7.55804962,14.1318676 7.67493127,13.561114 8.06836969,13.4498511 M19.1874803,14.040074 C19.175655,13.7003398 19.4243143,13.3991523 19.7728686,13.3802055 C20.0538027,13.4246977 20.3269621,13.6513396 20.3047487,13.9571658 C20.3304901,14.3611229 19.8437555,14.6356543 19.4995785,14.4458605 C19.3382701,14.3638669 19.2555579,14.1984425 19.1874803,14.039878 M6.05139347,13.649053 C6.29815815,13.541318 6.60346165,13.7552199 6.54714417,14.029294 C6.53407746,14.3396282 6.07576287,14.4589272 5.90746374,14.1996185 C5.75869933,14.019886 5.84768357,13.7422185 6.05139347,13.649053 Z M21.6124643,13.6425196 C21.7862515,13.5187779 22.0650949,13.6076968 22.1338911,13.8107534 C22.2507074,14.0324953 22.0365442,14.3362962 21.7869702,14.2987947 C21.4365865,14.3307428 21.3231022,13.796772 21.6124643,13.6425196 M12.4633551,15.1321237 C13.1127703,14.9632366 13.8108588,15.5045247 13.8149749,16.1734746 C13.8573763,16.8491538 13.1698064,17.4483928 12.5050379,17.292311 C11.9911898,17.2095988 11.5880167,16.7146321 11.6046768,16.1953613 C11.6033048,15.6988266 11.9780578,15.23718 12.4634205,15.1321237 M15.0352742,15.1307517 C15.694424,14.9465112 16.4132887,15.49773 16.4028353,16.1819026 C16.4376581,16.8451031 15.7715176,17.424154 15.1206651,17.2925723 C14.5081634,17.2133881 14.0562515,16.5404529 14.2272293,15.9460486 C14.3135349,15.5499969 14.6444491,15.2279026 15.0352742,15.1307517 M10.0764606,15.5423528 C10.5325538,15.4645406 10.9601617,15.973554 10.7752025,16.4064539 C10.6402888,16.8679698 9.96866026,16.9931488 9.67171944,16.6161745 C9.32342648,16.2541615 9.58345387,15.592333 10.0764606,15.5423528 M17.6187573,15.5633249 C18.0254585,15.3930004 18.5246718,15.7447561 18.4933771,16.1862146 C18.5097105,16.6721653 17.8933541,17.0071955 17.495669,16.7235828 C17.0448678,16.4687821 17.127188,15.7196027 17.6187573,15.5633249 M19.7269392,17.6778441 C19.5677214,17.3809686 19.8569528,16.9875302 20.1865604,17.0424756 C20.3506129,17.0397316 20.4654039,17.1689613 20.5703948,17.2776763 C20.5919549,17.4536194 20.6281496,17.663144 20.4821292,17.7990377 C20.283842,18.0499837 19.8346741,17.9783782 19.7269392,17.6781054 M7.64304852,17.1251879 C7.95109603,16.920106 8.39438392,17.2259321 8.3251304,17.5861158 C8.2882823,17.9046167 7.88739586,18.0866358 7.62279513,17.90625 C7.33918235,17.7421976 7.34963571,17.2750629 7.64304852,17.1255145 M13.7288653,17.792243 C14.1321691,17.6142745 14.6458865,17.9653768 14.6076664,18.4095794 C14.6375891,18.9003648 14.00209,19.240295 13.6080636,18.9453142 C13.1703291,18.6922122 13.2431106,17.9476715 13.7291266,17.792047 M10.9097242,18.4494982 C11.2531825,18.2687857 11.7141757,18.5808839 11.682881,18.9656329 C11.6933343,19.2812591 11.3852868,19.5503025 11.0737766,19.5036544 C10.8157746,19.4981011 10.6475408,19.2668204 10.5648286,19.0469078 C10.5690752,18.8071992 10.6677289,18.5402464 10.9097242,18.4498248 M16.6194159,18.4553782 C16.9726089,18.2370989 17.4746316,18.5506345 17.4412462,18.9617129 C17.4503275,19.3913461 16.8829713,19.6665962 16.5540824,19.3843554 C16.2356469,19.1631361 16.2745203,18.6313213 16.6194159,18.4553782 M17.6124853,20.9100236 C17.4556849,20.672275 17.6403174,20.3858528 17.8954448,20.3316914 C18.100592,20.3734395 18.3174993,20.5276919 18.2743791,20.7655059 C18.2444564,21.0873388 17.7737284,21.1861231 17.6124853,20.9100236 M9.73071561,20.7035697 C9.79330511,20.5151479 9.94487886,20.327902 10.1666861,20.3769022 C10.4900217,20.3998342 10.5859966,20.8871569 10.3029718,21.0373586 C10.0484978,21.2089245 9.75325567,20.9739851 9.73071561,20.7035697 M13.5331261,20.9197583 C13.5950623,20.6410456 13.9558339,20.5054785 14.1936479,20.6535243 C14.3504483,20.7210138 14.3966391,20.8968263 14.4370152,21.046244 C14.4154552,21.1240562 14.3961818,21.2019991 14.3772351,21.2798113 C14.2798881,21.3951903 14.1551011,21.5106346 13.9927474,21.5064533 C13.6916252,21.5417334 13.4200338,21.2013458 13.5331261,20.9197583" id="Shape" fill="#FFFFFF" fill-rule="nonzero"></path>
                        </g>
                    </g>
                </g>
            </g>
        </g>
    </g>
</svg>
