<?xml version="1.0" encoding="UTF-8"?>
<svg width="32px" height="32px" viewBox="0 0 32 32" version="1.1" xmlns="http://www.w3.org/2000/svg" xmlns:xlink="http://www.w3.org/1999/xlink">
    <title>BNB</title>
    <g id="03_ui_kit" stroke="none" stroke-width="1" fill="none" fill-rule="evenodd">
        <g id="03_icons" transform="translate(-355.000000, -480.000000)">
            <g id="binance_coin-copy-2" transform="translate(355.000000, 480.000000)">
                <rect id="frame" x="0" y="0" width="32" height="32"></rect>
                <path d="M16,0 C24.836556,-1.623249e-15 32,7.163444 32,16 C32,24.836556 24.836556,32 16,32 C7.163444,32 1.082166e-15,24.836556 0,16 C-1.082166e-15,7.163444 7.163444,1.623249e-15 16,0 Z" id="shape" fill="#F3BA2F" fill-rule="nonzero"></path>
                <path d="M20.6631444,17.9127248 L23.3766527,20.6232002 L23.3753258,20.6247167 L16.0000424,28 L8.62324262,20.6233898 L11.3392152,17.9149995 L16.0000424,22.5756372 L20.6631444,17.9127248 Z M16.0000424,13.2465899 L18.7520308,15.9985783 L18.7508935,15.9985783 L18.7533577,15.9999052 L18.7520308,16.0014217 L16.0000424,18.7534101 L13.2467272,15.9999052 L13.2505183,15.9961141 L16.0000424,13.2465899 Z M25.2884031,13.2889081 L28.0003484,16.0008534 L25.2882691,18.7129327 L22.5763238,16.0009874 L25.2884031,13.2889081 Z M6.71207931,13.2876304 L9.42402459,15.9995757 L6.71194527,18.711655 L4,15.9997097 L6.71207931,13.2876304 Z M16.0000424,4 L23.3753258,11.3754729 L20.6633339,14.0874648 L16.0000424,9.42436281 L11.3392152,14.0850005 L8.62722332,11.3730087 L16.0000424,4 Z" id="shape" fill="#FFFFFF" fill-rule="nonzero"></path>
            </g>
        </g>
    </g>
</svg>
