<?xml version="1.0" encoding="UTF-8"?>
<svg width="32px" height="32px" viewBox="0 0 32 32" version="1.1" xmlns="http://www.w3.org/2000/svg" xmlns:xlink="http://www.w3.org/1999/xlink">
    <title>bitcoin</title>
    <g id="03_ui_kit" stroke="none" stroke-width="1" fill="none" fill-rule="evenodd">
        <g id="03_icons" transform="translate(-261.000000, -480.000000)">
            <g id="bitcoin" transform="translate(261.000000, 480.000000)">
                <rect id="frame" x="0" y="0" width="32" height="32"></rect>
                <path d="M16,0 C24.836556,-1.623249e-15 32,7.163444 32,16 C32,24.836556 24.836556,32 16,32 C7.163444,32 1.082166e-15,24.836556 0,16 C-1.082166e-15,7.163444 7.163444,1.623249e-15 16,0 Z" id="shape" fill="#F7931A" fill-rule="nonzero"></path>
                <path d="M23.0527303,13.7207978 C23.3712303,11.5917978 21.7502303,10.4472978 19.5337303,9.68379784 L20.2527303,6.79979784 L18.4972303,6.36229784 L17.7972303,9.17029784 C17.3357303,9.05529784 16.8617303,8.94679784 16.3907303,8.83929784 L17.0957303,6.01279784 L15.3412303,5.57529784 L14.6217303,8.45829784 C14.2397303,8.37129784 13.8647303,8.28529784 13.5007303,8.19479784 L13.5027303,8.18579784 L11.0817303,7.58129784 L10.6147303,9.45629784 C10.6147303,9.45629784 11.9172303,9.75479784 11.8897303,9.77329784 C12.6007303,9.95079784 12.7292303,10.4212978 12.7077303,10.7942978 L11.8887303,14.0797978 C11.9377303,14.0922978 12.0012303,14.1102978 12.0712303,14.1382978 C12.0127303,14.1237978 11.9502303,14.1077978 11.8857303,14.0922978 L10.7377303,18.6947978 C10.6507303,18.9107978 10.4302303,19.2347978 9.93323028,19.1117978 C9.95073028,19.1372978 8.65723028,18.7932978 8.65723028,18.7932978 L7.78573028,20.8027978 L10.0702303,21.3722978 C10.4952303,21.4787978 10.9117303,21.5902978 11.3217303,21.6952978 L10.5952303,24.6122978 L12.3487303,25.0497978 L13.0682303,22.1637978 C13.5472303,22.2937978 14.0122303,22.4137978 14.4672303,22.5267978 L13.7502303,25.3992978 L15.5057303,25.8367978 L16.2322303,22.9252978 C19.2257303,23.4917978 21.4767303,23.2632978 22.4242303,20.5557978 C23.1877303,18.3757978 22.3862303,17.1182978 20.8112303,16.2982978 C21.9582303,16.0337978 22.8222303,15.2792978 23.0527303,13.7207978 L23.0527303,13.7207978 Z M19.0417303,19.3452978 C18.4992303,21.5252978 14.8287303,20.3467978 13.6387303,20.0512978 L14.6027303,16.1867978 C15.7927303,16.4837978 19.6087303,17.0717978 19.0417303,19.3452978 Z M19.5847303,13.6892978 C19.0897303,15.6722978 16.0347303,14.6647978 15.0437303,14.4177978 L15.9177303,10.9127978 C16.9087303,11.1597978 20.1002303,11.6207978 19.5847303,13.6892978 Z" id="shape" fill="#FFFFFF" fill-rule="nonzero"></path>
            </g>
        </g>
    </g>
</svg>