<?xml version="1.0" encoding="UTF-8"?>
<svg width="32px" height="32px" viewBox="0 0 32 32" version="1.1" xmlns="http://www.w3.org/2000/svg" xmlns:xlink="http://www.w3.org/1999/xlink">
    <title>ETH</title>
    <g id="03_ui_kit" stroke="none" stroke-width="1" fill="none" fill-rule="evenodd">
        <g id="03_icons" transform="translate(-165.000000, -480.000000)">
            <g id="ethereum" transform="translate(165.000000, 480.000000)">
                <rect id="frame" x="0" y="0" width="32" height="32"></rect>
                <path d="M16,0 C24.836556,-1.623249e-15 32,7.163444 32,16 C32,24.836556 24.836556,32 16,32 C7.163444,32 1.082166e-15,24.836556 0,16 C-1.082166e-15,7.163444 7.163444,1.623249e-15 16,0 Z" id="shape" fill="#464A75" fill-rule="nonzero"></path>
                <path d="M15.748,21.306 L8.96,17.296 L15.7466667,26.864 L22.5413333,17.296 L15.7453333,21.306 L15.748,21.306 Z M15.8513333,4.74066667 L9.06133333,16.008 L15.8506667,20.0213333 L22.64,16.012 L15.8513333,4.74 L15.8513333,4.74066667 Z" id="shape" fill="#FFFFFF" fill-rule="nonzero"></path>
            </g>
        </g>
    </g>
</svg>
