<?xml version="1.0" encoding="UTF-8"?>
<svg width="24px" height="24px" viewBox="0 0 24 24" version="1.1" xmlns="http://www.w3.org/2000/svg" xmlns:xlink="http://www.w3.org/1999/xlink">
    <title>xrp</title>
    <g id="03_ui_kit" stroke="none" stroke-width="1" fill="none" fill-rule="evenodd">
        <rect id="frame" x="0" y="0" width="24" height="24"></rect>
        <path d="M12,0 C18.627417,-1.21743675e-15 24,5.372583 24,12 C24,18.627417 18.627417,24 12,24 C5.372583,24 8.11624501e-16,18.627417 0,12 C-8.11624501e-16,5.372583 5.372583,1.21743675e-15 12,0 Z" id="shape" fill="#383838" fill-rule="nonzero"></path>
        <path d="M14.7612358,13.7543755 L19,18.1509566 L16.9750849,18.1509566 L13.7487453,14.8044811 C12.7828774,13.8027085 11.2170434,13.8027085 10.2512349,14.8044811 L7.02488208,18.1509566 L5,18.1509566 L9.23879057,13.7543755 C10.7637604,12.1726482 13.2362264,12.1726482 14.7612358,13.7543755 Z M7.05105841,6 L10.2513924,9.31945943 C11.2172009,10.3212189 12.7830414,10.3212189 13.7489094,9.31945943 L16.9492301,6 L18.9741452,6 L14.7613339,10.3695783 C13.2363905,11.9513142 10.7639178,11.9513142 9.23894803,10.3695783 L5.02618294,6 L7.05105841,6 Z" id="shape" fill="#FFFFFF" fill-rule="nonzero"></path>
    </g>
</svg>
