<?xml version="1.0" encoding="UTF-8"?>
<svg width="998px" height="527px" viewBox="0 0 998 527" version="1.1" xmlns="http://www.w3.org/2000/svg" xmlns:xlink="http://www.w3.org/1999/xlink">
    <defs>
        <rect id="path-8h-es2gp4k-1" x="0" y="0" width="214" height="214" rx="107"></rect>
        <filter x="-10.3%" y="-6.5%" width="120.6%" height="120.6%" filterUnits="objectBoundingBox" id="filter-8h-es2gp4k-2">
            <feOffset dx="0" dy="8" in="SourceAlpha" result="shadowOffsetOuter1"></feOffset>
            <feGaussianBlur stdDeviation="6" in="shadowOffsetOuter1" result="shadowBlurOuter1"></feGaussianBlur>
            <feColorMatrix values="0 0 0 0 0.0784313725   0 0 0 0 0.062745098   0 0 0 0 0.160784314  0 0 0 0.06 0" type="matrix" in="shadowBlurOuter1" result="shadowMatrixOuter1"></feColorMatrix>
            <feMorphology radius="0.5" operator="erode" in="SourceAlpha" result="shadowSpreadOuter2"></feMorphology>
            <feOffset dx="0" dy="2" in="shadowSpreadOuter2" result="shadowOffsetOuter2"></feOffset>
            <feGaussianBlur stdDeviation="2" in="shadowOffsetOuter2" result="shadowBlurOuter2"></feGaussianBlur>
            <feColorMatrix values="0 0 0 0 0.0784313725   0 0 0 0 0.062745098   0 0 0 0 0.160784314  0 0 0 0.06 0" type="matrix" in="shadowBlurOuter2" result="shadowMatrixOuter2"></feColorMatrix>
            <feOffset dx="0" dy="0" in="SourceAlpha" result="shadowOffsetOuter3"></feOffset>
            <feGaussianBlur stdDeviation="0.5" in="shadowOffsetOuter3" result="shadowBlurOuter3"></feGaussianBlur>
            <feColorMatrix values="0 0 0 0 0.0784313725   0 0 0 0 0.062745098   0 0 0 0 0.160784314  0 0 0 0.12 0" type="matrix" in="shadowBlurOuter3" result="shadowMatrixOuter3"></feColorMatrix>
            <feMerge>
                <feMergeNode in="shadowMatrixOuter1"></feMergeNode>
                <feMergeNode in="shadowMatrixOuter2"></feMergeNode>
                <feMergeNode in="shadowMatrixOuter3"></feMergeNode>
            </feMerge>
        </filter>
        <rect id="path-8h-es2gp4k-3" x="0" y="0" width="144" height="144" rx="72"></rect>
        <filter x="-15.3%" y="-9.7%" width="130.6%" height="130.6%" filterUnits="objectBoundingBox" id="filter-8h-es2gp4k-4">
            <feOffset dx="0" dy="8" in="SourceAlpha" result="shadowOffsetOuter1"></feOffset>
            <feGaussianBlur stdDeviation="6" in="shadowOffsetOuter1" result="shadowBlurOuter1"></feGaussianBlur>
            <feColorMatrix values="0 0 0 0 0.0784313725   0 0 0 0 0.062745098   0 0 0 0 0.160784314  0 0 0 0.06 0" type="matrix" in="shadowBlurOuter1" result="shadowMatrixOuter1"></feColorMatrix>
            <feMorphology radius="0.5" operator="erode" in="SourceAlpha" result="shadowSpreadOuter2"></feMorphology>
            <feOffset dx="0" dy="2" in="shadowSpreadOuter2" result="shadowOffsetOuter2"></feOffset>
            <feGaussianBlur stdDeviation="2" in="shadowOffsetOuter2" result="shadowBlurOuter2"></feGaussianBlur>
            <feColorMatrix values="0 0 0 0 0.0784313725   0 0 0 0 0.062745098   0 0 0 0 0.160784314  0 0 0 0.06 0" type="matrix" in="shadowBlurOuter2" result="shadowMatrixOuter2"></feColorMatrix>
            <feOffset dx="0" dy="0" in="SourceAlpha" result="shadowOffsetOuter3"></feOffset>
            <feGaussianBlur stdDeviation="0.5" in="shadowOffsetOuter3" result="shadowBlurOuter3"></feGaussianBlur>
            <feColorMatrix values="0 0 0 0 0.0784313725   0 0 0 0 0.062745098   0 0 0 0 0.160784314  0 0 0 0.12 0" type="matrix" in="shadowBlurOuter3" result="shadowMatrixOuter3"></feColorMatrix>
            <feMerge>
                <feMergeNode in="shadowMatrixOuter1"></feMergeNode>
                <feMergeNode in="shadowMatrixOuter2"></feMergeNode>
                <feMergeNode in="shadowMatrixOuter3"></feMergeNode>
            </feMerge>
        </filter>
        <rect id="path-8h-es2gp4k-5" x="0" y="0" width="72" height="72" rx="36"></rect>
        <filter x="-30.6%" y="-19.4%" width="161.1%" height="161.1%" filterUnits="objectBoundingBox" id="filter-8h-es2gp4k-6">
            <feOffset dx="0" dy="8" in="SourceAlpha" result="shadowOffsetOuter1"></feOffset>
            <feGaussianBlur stdDeviation="6" in="shadowOffsetOuter1" result="shadowBlurOuter1"></feGaussianBlur>
            <feColorMatrix values="0 0 0 0 0.0784313725   0 0 0 0 0.062745098   0 0 0 0 0.160784314  0 0 0 0.06 0" type="matrix" in="shadowBlurOuter1" result="shadowMatrixOuter1"></feColorMatrix>
            <feMorphology radius="0.5" operator="erode" in="SourceAlpha" result="shadowSpreadOuter2"></feMorphology>
            <feOffset dx="0" dy="2" in="shadowSpreadOuter2" result="shadowOffsetOuter2"></feOffset>
            <feGaussianBlur stdDeviation="2" in="shadowOffsetOuter2" result="shadowBlurOuter2"></feGaussianBlur>
            <feColorMatrix values="0 0 0 0 0.0784313725   0 0 0 0 0.062745098   0 0 0 0 0.160784314  0 0 0 0.06 0" type="matrix" in="shadowBlurOuter2" result="shadowMatrixOuter2"></feColorMatrix>
            <feOffset dx="0" dy="0" in="SourceAlpha" result="shadowOffsetOuter3"></feOffset>
            <feGaussianBlur stdDeviation="0.5" in="shadowOffsetOuter3" result="shadowBlurOuter3"></feGaussianBlur>
            <feColorMatrix values="0 0 0 0 0.0784313725   0 0 0 0 0.062745098   0 0 0 0 0.160784314  0 0 0 0.12 0" type="matrix" in="shadowBlurOuter3" result="shadowMatrixOuter3"></feColorMatrix>
            <feMerge>
                <feMergeNode in="shadowMatrixOuter1"></feMergeNode>
                <feMergeNode in="shadowMatrixOuter2"></feMergeNode>
                <feMergeNode in="shadowMatrixOuter3"></feMergeNode>
            </feMerge>
        </filter>
        <rect id="path-8h-es2gp4k-7" x="0" y="0" width="112" height="112" rx="56"></rect>
        <filter x="-19.6%" y="-12.5%" width="139.3%" height="139.3%" filterUnits="objectBoundingBox" id="filter-8h-es2gp4k-8">
            <feOffset dx="0" dy="8" in="SourceAlpha" result="shadowOffsetOuter1"></feOffset>
            <feGaussianBlur stdDeviation="6" in="shadowOffsetOuter1" result="shadowBlurOuter1"></feGaussianBlur>
            <feColorMatrix values="0 0 0 0 0.0784313725   0 0 0 0 0.062745098   0 0 0 0 0.160784314  0 0 0 0.06 0" type="matrix" in="shadowBlurOuter1" result="shadowMatrixOuter1"></feColorMatrix>
            <feMorphology radius="0.5" operator="erode" in="SourceAlpha" result="shadowSpreadOuter2"></feMorphology>
            <feOffset dx="0" dy="2" in="shadowSpreadOuter2" result="shadowOffsetOuter2"></feOffset>
            <feGaussianBlur stdDeviation="2" in="shadowOffsetOuter2" result="shadowBlurOuter2"></feGaussianBlur>
            <feColorMatrix values="0 0 0 0 0.0784313725   0 0 0 0 0.062745098   0 0 0 0 0.160784314  0 0 0 0.06 0" type="matrix" in="shadowBlurOuter2" result="shadowMatrixOuter2"></feColorMatrix>
            <feOffset dx="0" dy="0" in="SourceAlpha" result="shadowOffsetOuter3"></feOffset>
            <feGaussianBlur stdDeviation="0.5" in="shadowOffsetOuter3" result="shadowBlurOuter3"></feGaussianBlur>
            <feColorMatrix values="0 0 0 0 0.0784313725   0 0 0 0 0.062745098   0 0 0 0 0.160784314  0 0 0 0.12 0" type="matrix" in="shadowBlurOuter3" result="shadowMatrixOuter3"></feColorMatrix>
            <feMerge>
                <feMergeNode in="shadowMatrixOuter1"></feMergeNode>
                <feMergeNode in="shadowMatrixOuter2"></feMergeNode>
                <feMergeNode in="shadowMatrixOuter3"></feMergeNode>
            </feMerge>
        </filter>
        <linearGradient x1="0%" y1="9.28019036%" x2="99.8522915%" y2="90.5995164%" id="linearGradient-8h-es2gp4k-9">
            <stop stop-color="#00FFAA" offset="0%"></stop>
            <stop stop-color="#4579F5" offset="54.9415428%"></stop>
            <stop stop-color="#9C42F5" offset="99.9815245%"></stop>
        </linearGradient>
        <path d="M121.342853,20.1857765 L86.8122721,0.681470397 C84.9692116,-0.36498379 82.6740956,-0.194622201 81.0067925,1.11239884 C79.3394895,2.41941987 78.63203,4.60281699 79.2172789,6.63528646 L82.3395273,17.5670857 L71.1143009,22.3350794 L63.1104418,25.7443185 L58.3775097,27.7577459 L56.865945,28.4000663 L55.4039398,29.1906145 C54.4345941,29.6958045 53.4955109,30.2567215 52.5914382,30.8705294 C45.4300635,35.6050619 40.1228027,42.6541421 37.5625202,50.8318713 C36.312989,54.702456 35.7634184,58.7636422 35.9394466,62.8259696 C35.9640703,63.822697 36.0509678,64.8169262 36.199634,65.8028776 L36.3854821,67.2728032 L36.695229,68.7180241 C36.8862419,69.6777312 37.1302812,70.6261867 37.4262316,71.5590567 L37.8970468,72.942516 L38.1200646,73.6218933 L38.2439633,73.9677582 L38.3183026,74.1283383 C40.1016411,77.8480229 40.5393906,82.0682283 39.55729,86.0730273 C38.3898176,90.529257 35.7269749,94.452563 32.0118563,97.1901113 C31.0160795,97.8940521 29.9681962,98.521702 28.877218,99.0676632 L28.0223167,99.5 L27.0187368,99.9323253 L25.023967,100.772283 L17.0077181,104.181522 L1,111 L18.2095359,108.381309 L26.808109,107.146078 L28.9639472,106.812565 L30.0418663,106.651985 L31.2808537,106.404939 C32.9143309,106.058667 34.5176603,105.58367 36.0757352,104.984422 C42.6358003,102.334532 48.1001427,97.5443203 51.5754685,91.3968753 C55.236785,84.7704387 56.5175898,77.0958313 55.2057018,69.6444478 L55.2057018,69.2862306 L55.2057018,68.7303764 L55.2057018,68.0262944 C55.1683703,67.5576442 55.1683703,67.0867807 55.2057018,66.6181305 L55.2057018,65.9264008 L55.3419904,65.2470234 C55.395834,64.7996685 55.4870091,64.3575702 55.6145676,63.9253257 C56.0299727,62.229386 56.7658497,60.6279412 57.7827957,59.2067412 C59.5380942,56.6038034 62.17848,54.7216506 65.2167205,53.9075978 C65.5605968,53.8056794 65.913117,53.7353891 66.2698599,53.6976085 L66.7778447,53.5987899 L67.3106093,53.5987899 L67.8309841,53.5987899 C67.934101,53.6061519 68.037614,53.6061519 68.1407309,53.5987899 L68.6858854,53.524676 L70.8293337,53.1911635 L79.502246,51.8818181 L91.569984,50.0536754 L94.5807235,60.5160866 C95.1614392,62.5400799 96.9062988,64.0171587 99.0037374,64.2603076 C101.101176,64.5034565 103.139436,63.4649418 104.170487,61.627795 L123.337623,27.251301 C124.737807,24.7503316 123.845969,21.5914204 121.342853,20.1857765 Z" id="path-8h-es2gp4k-10"></path>
        <filter x="-35.8%" y="-25.2%" width="171.5%" height="179.3%" filterUnits="objectBoundingBox" id="filter-8h-es2gp4k-11">
            <feMorphology radius="2" operator="erode" in="SourceAlpha" result="shadowSpreadOuter1"></feMorphology>
            <feOffset dx="0" dy="8" in="shadowSpreadOuter1" result="shadowOffsetOuter1"></feOffset>
            <feGaussianBlur stdDeviation="4" in="shadowOffsetOuter1" result="shadowBlurOuter1"></feGaussianBlur>
            <feColorMatrix values="0 0 0 0 0.270588235   0 0 0 0 0.474509804   0 0 0 0 0.960784314  0 0 0 0.12 0" type="matrix" in="shadowBlurOuter1" result="shadowMatrixOuter1"></feColorMatrix>
            <feOffset dx="0" dy="16" in="SourceAlpha" result="shadowOffsetOuter2"></feOffset>
            <feGaussianBlur stdDeviation="12" in="shadowOffsetOuter2" result="shadowBlurOuter2"></feGaussianBlur>
            <feColorMatrix values="0 0 0 0 0.270588235   0 0 0 0 0.474509804   0 0 0 0 0.960784314  0 0 0 0.24 0" type="matrix" in="shadowBlurOuter2" result="shadowMatrixOuter2"></feColorMatrix>
            <feMorphology radius="0.5" operator="erode" in="SourceAlpha" result="shadowSpreadOuter3"></feMorphology>
            <feOffset dx="0" dy="2" in="shadowSpreadOuter3" result="shadowOffsetOuter3"></feOffset>
            <feGaussianBlur stdDeviation="2" in="shadowOffsetOuter3" result="shadowBlurOuter3"></feGaussianBlur>
            <feColorMatrix values="0 0 0 0 0.105882353   0 0 0 0 0.0392156863   0 0 0 0 0.321568627  0 0 0 0.12 0" type="matrix" in="shadowBlurOuter3" result="shadowMatrixOuter3"></feColorMatrix>
            <feOffset dx="0" dy="0" in="SourceAlpha" result="shadowOffsetOuter4"></feOffset>
            <feGaussianBlur stdDeviation="0.5" in="shadowOffsetOuter4" result="shadowBlurOuter4"></feGaussianBlur>
            <feColorMatrix values="0 0 0 0 0.270588235   0 0 0 0 0.474509804   0 0 0 0 0.960784314  0 0 0 0.24 0" type="matrix" in="shadowBlurOuter4" result="shadowMatrixOuter4"></feColorMatrix>
            <feMerge>
                <feMergeNode in="shadowMatrixOuter1"></feMergeNode>
                <feMergeNode in="shadowMatrixOuter2"></feMergeNode>
                <feMergeNode in="shadowMatrixOuter3"></feMergeNode>
                <feMergeNode in="shadowMatrixOuter4"></feMergeNode>
            </feMerge>
        </filter>
        <linearGradient x1="0%" y1="9.20915713%" x2="99.8522915%" y2="90.6703398%" id="linearGradient-8h-es2gp4k-12">
            <stop stop-color="#00FFAA" offset="0%"></stop>
            <stop stop-color="#4579F5" offset="54.9415428%"></stop>
            <stop stop-color="#9C42F5" offset="99.9815245%"></stop>
        </linearGradient>
        <path d="M91.3626249,15.4615665 L65.254137,0.701551007 C63.8606034,-0.0903602694 62.1252719,0.0385620143 60.8646281,1.02765901 C59.6039843,2.01675602 59.0690759,3.66905654 59.5115812,5.20714154 L61.8723056,13.4798545 L53.3849392,17.088066 L47.3332409,19.6680307 L43.7546825,21.1917055 L42.6117921,21.6777858 L41.5063735,22.2760385 C40.7734536,22.6583444 40.0634151,23.0828221 39.379848,23.5473254 C33.96515,27.1302148 29.952343,32.4646539 28.0165197,38.6532057 C27.0717522,41.5822968 26.6562232,44.655627 26.7893177,47.7298207 C26.8079356,48.4841009 26.8736386,49.2364905 26.9860448,49.9826159 L27.1265641,51.094992 L27.3607629,52.1886727 C27.5051873,52.9149375 27.6897048,53.6326877 27.9134722,54.3386433 L28.2694545,55.3855855 L28.4380776,55.8997089 L28.5317572,56.1614445 L28.5879649,56.2829645 C29.9363428,59.097861 30.2673242,62.29153 29.5247603,65.3221887 C28.6420372,68.6944706 26.6286684,71.6634589 23.8196763,73.7351171 C23.0667718,74.2678291 22.2744698,74.7428074 21.4495839,75.1559672 L20.8031951,75.4831367 L20.0443908,75.8103061 L18.5361502,76.4459496 L12.475084,79.0259143 L0.37168736,84.1858437 L13.3837755,82.2041317 L19.8851356,81.2693618 L21.5151596,81.016974 L22.3301716,80.8954539 L23.266967,80.7084999 C24.5020351,80.4464565 25.7143085,80.0869991 26.8923652,79.6335147 C31.8524144,77.6281925 35.9839904,74.0031671 38.6116757,69.3510466 C41.3799882,64.336446 42.3484016,58.528635 41.3564863,52.8897501 L41.3564863,52.6186668 L41.3564863,52.1980204 L41.3564863,51.6652016 C41.32826,51.3105474 41.32826,50.9542182 41.3564863,50.599564 L41.3564863,50.0760929 L41.4595337,49.5619695 C41.5002448,49.2234307 41.5691821,48.8888698 41.6656287,48.5617658 C41.9797155,47.278352 42.5361103,46.0664478 43.3050207,44.9909451 C44.6321976,43.0211544 46.6285869,41.5968225 48.9257931,40.9807826 C49.1857972,40.9036551 49.4523368,40.8504625 49.7220692,40.8218717 L50.1061553,40.7470901 L50.5089773,40.7470901 L50.9024314,40.7470901 C50.9803979,40.7526613 51.0586638,40.7526613 51.1366303,40.7470901 L51.5488202,40.6910039 L53.1694763,40.4386161 L59.7270441,39.4477601 L68.8514313,38.0643007 L71.1278442,45.9818011 C71.5669219,47.5134717 72.886206,48.6312611 74.4720742,48.8152656 C76.0579424,48.9992702 77.5990657,48.2133672 78.3786406,46.823094 L92.8708655,20.8084498 C93.9295411,18.9158243 93.2552248,16.525297 91.3626249,15.4615665 Z" id="path-8h-es2gp4k-13"></path>
        <filter x="-47.3%" y="-33.3%" width="194.6%" height="204.8%" filterUnits="objectBoundingBox" id="filter-8h-es2gp4k-14">
            <feMorphology radius="2" operator="erode" in="SourceAlpha" result="shadowSpreadOuter1"></feMorphology>
            <feOffset dx="0" dy="8" in="shadowSpreadOuter1" result="shadowOffsetOuter1"></feOffset>
            <feGaussianBlur stdDeviation="4" in="shadowOffsetOuter1" result="shadowBlurOuter1"></feGaussianBlur>
            <feColorMatrix values="0 0 0 0 0.270588235   0 0 0 0 0.474509804   0 0 0 0 0.960784314  0 0 0 0.12 0" type="matrix" in="shadowBlurOuter1" result="shadowMatrixOuter1"></feColorMatrix>
            <feOffset dx="0" dy="16" in="SourceAlpha" result="shadowOffsetOuter2"></feOffset>
            <feGaussianBlur stdDeviation="12" in="shadowOffsetOuter2" result="shadowBlurOuter2"></feGaussianBlur>
            <feColorMatrix values="0 0 0 0 0.270588235   0 0 0 0 0.474509804   0 0 0 0 0.960784314  0 0 0 0.24 0" type="matrix" in="shadowBlurOuter2" result="shadowMatrixOuter2"></feColorMatrix>
            <feMorphology radius="0.5" operator="erode" in="SourceAlpha" result="shadowSpreadOuter3"></feMorphology>
            <feOffset dx="0" dy="2" in="shadowSpreadOuter3" result="shadowOffsetOuter3"></feOffset>
            <feGaussianBlur stdDeviation="2" in="shadowOffsetOuter3" result="shadowBlurOuter3"></feGaussianBlur>
            <feColorMatrix values="0 0 0 0 0.105882353   0 0 0 0 0.0392156863   0 0 0 0 0.321568627  0 0 0 0.12 0" type="matrix" in="shadowBlurOuter3" result="shadowMatrixOuter3"></feColorMatrix>
            <feOffset dx="0" dy="0" in="SourceAlpha" result="shadowOffsetOuter4"></feOffset>
            <feGaussianBlur stdDeviation="0.5" in="shadowOffsetOuter4" result="shadowBlurOuter4"></feGaussianBlur>
            <feColorMatrix values="0 0 0 0 0.270588235   0 0 0 0 0.474509804   0 0 0 0 0.960784314  0 0 0 0.24 0" type="matrix" in="shadowBlurOuter4" result="shadowMatrixOuter4"></feColorMatrix>
            <feMerge>
                <feMergeNode in="shadowMatrixOuter1"></feMergeNode>
                <feMergeNode in="shadowMatrixOuter2"></feMergeNode>
                <feMergeNode in="shadowMatrixOuter3"></feMergeNode>
                <feMergeNode in="shadowMatrixOuter4"></feMergeNode>
            </feMerge>
        </filter>
        <path d="M91.3626249,15.4615665 L65.254137,0.701551007 C63.8606034,-0.0903602694 62.1252719,0.0385620143 60.8646281,1.02765901 C59.6039843,2.01675602 59.0690759,3.66905654 59.5115812,5.20714154 L61.8723056,13.4798545 L53.3849392,17.088066 L47.3332409,19.6680307 L43.7546825,21.1917055 L42.6117921,21.6777858 L41.5063735,22.2760385 C40.7734536,22.6583444 40.0634151,23.0828221 39.379848,23.5473254 C33.96515,27.1302148 29.952343,32.4646539 28.0165197,38.6532057 C27.0717522,41.5822968 26.6562232,44.655627 26.7893177,47.7298207 C26.8079356,48.4841009 26.8736386,49.2364905 26.9860448,49.9826159 L27.1265641,51.094992 L27.3607629,52.1886727 C27.5051873,52.9149375 27.6897048,53.6326877 27.9134722,54.3386433 L28.2694545,55.3855855 L28.4380776,55.8997089 L28.5317572,56.1614445 L28.5879649,56.2829645 C29.9363428,59.097861 30.2673242,62.29153 29.5247603,65.3221887 C28.6420372,68.6944706 26.6286684,71.6634589 23.8196763,73.7351171 C23.0667718,74.2678291 22.2744698,74.7428074 21.4495839,75.1559672 L20.8031951,75.4831367 L20.0443908,75.8103061 L18.5361502,76.4459496 L12.475084,79.0259143 L0.37168736,84.1858437 L13.3837755,82.2041317 L19.8851356,81.2693618 L21.5151596,81.016974 L22.3301716,80.8954539 L23.266967,80.7084999 C24.5020351,80.4464565 25.7143085,80.0869991 26.8923652,79.6335147 C31.8524144,77.6281925 35.9839904,74.0031671 38.6116757,69.3510466 C41.3799882,64.336446 42.3484016,58.528635 41.3564863,52.8897501 L41.3564863,52.6186668 L41.3564863,52.1980204 L41.3564863,51.6652016 C41.32826,51.3105474 41.32826,50.9542182 41.3564863,50.599564 L41.3564863,50.0760929 L41.4595337,49.5619695 C41.5002448,49.2234307 41.5691821,48.8888698 41.6656287,48.5617658 C41.9797155,47.278352 42.5361103,46.0664478 43.3050207,44.9909451 C44.6321976,43.0211544 46.6285869,41.5968225 48.9257931,40.9807826 C49.1857972,40.9036551 49.4523368,40.8504625 49.7220692,40.8218717 L50.1061553,40.7470901 L50.5089773,40.7470901 L50.9024314,40.7470901 C50.9803979,40.7526613 51.0586638,40.7526613 51.1366303,40.7470901 L51.5488202,40.6910039 L53.1694763,40.4386161 L59.7270441,39.4477601 L68.8514313,38.0643007 L71.1278442,45.9818011 C71.5669219,47.5134717 72.886206,48.6312611 74.4720742,48.8152656 C76.0579424,48.9992702 77.5990657,48.2133672 78.3786406,46.823094 L92.8708655,20.8084498 C93.9295411,18.9158243 93.2552248,16.525297 91.3626249,15.4615665 Z" id="path-8h-es2gp4k-15"></path>
        <filter x="-47.3%" y="-33.3%" width="194.6%" height="204.8%" filterUnits="objectBoundingBox" id="filter-8h-es2gp4k-16">
            <feMorphology radius="2" operator="erode" in="SourceAlpha" result="shadowSpreadOuter1"></feMorphology>
            <feOffset dx="0" dy="8" in="shadowSpreadOuter1" result="shadowOffsetOuter1"></feOffset>
            <feGaussianBlur stdDeviation="4" in="shadowOffsetOuter1" result="shadowBlurOuter1"></feGaussianBlur>
            <feColorMatrix values="0 0 0 0 0.270588235   0 0 0 0 0.474509804   0 0 0 0 0.960784314  0 0 0 0.12 0" type="matrix" in="shadowBlurOuter1" result="shadowMatrixOuter1"></feColorMatrix>
            <feOffset dx="0" dy="16" in="SourceAlpha" result="shadowOffsetOuter2"></feOffset>
            <feGaussianBlur stdDeviation="12" in="shadowOffsetOuter2" result="shadowBlurOuter2"></feGaussianBlur>
            <feColorMatrix values="0 0 0 0 0.270588235   0 0 0 0 0.474509804   0 0 0 0 0.960784314  0 0 0 0.24 0" type="matrix" in="shadowBlurOuter2" result="shadowMatrixOuter2"></feColorMatrix>
            <feMorphology radius="0.5" operator="erode" in="SourceAlpha" result="shadowSpreadOuter3"></feMorphology>
            <feOffset dx="0" dy="2" in="shadowSpreadOuter3" result="shadowOffsetOuter3"></feOffset>
            <feGaussianBlur stdDeviation="2" in="shadowOffsetOuter3" result="shadowBlurOuter3"></feGaussianBlur>
            <feColorMatrix values="0 0 0 0 0.105882353   0 0 0 0 0.0392156863   0 0 0 0 0.321568627  0 0 0 0.12 0" type="matrix" in="shadowBlurOuter3" result="shadowMatrixOuter3"></feColorMatrix>
            <feOffset dx="0" dy="0" in="SourceAlpha" result="shadowOffsetOuter4"></feOffset>
            <feGaussianBlur stdDeviation="0.5" in="shadowOffsetOuter4" result="shadowBlurOuter4"></feGaussianBlur>
            <feColorMatrix values="0 0 0 0 0.270588235   0 0 0 0 0.474509804   0 0 0 0 0.960784314  0 0 0 0.24 0" type="matrix" in="shadowBlurOuter4" result="shadowMatrixOuter4"></feColorMatrix>
            <feMerge>
                <feMergeNode in="shadowMatrixOuter1"></feMergeNode>
                <feMergeNode in="shadowMatrixOuter2"></feMergeNode>
                <feMergeNode in="shadowMatrixOuter3"></feMergeNode>
                <feMergeNode in="shadowMatrixOuter4"></feMergeNode>
            </feMerge>
        </filter>
        <path d="M91.3626249,15.4615665 L65.254137,0.701551007 C63.8606034,-0.0903602694 62.1252719,0.0385620143 60.8646281,1.02765901 C59.6039843,2.01675602 59.0690759,3.66905654 59.5115812,5.20714154 L61.8723056,13.4798545 L53.3849392,17.088066 L47.3332409,19.6680307 L43.7546825,21.1917055 L42.6117921,21.6777858 L41.5063735,22.2760385 C40.7734536,22.6583444 40.0634151,23.0828221 39.379848,23.5473254 C33.96515,27.1302148 29.952343,32.4646539 28.0165197,38.6532057 C27.0717522,41.5822968 26.6562232,44.655627 26.7893177,47.7298207 C26.8079356,48.4841009 26.8736386,49.2364905 26.9860448,49.9826159 L27.1265641,51.094992 L27.3607629,52.1886727 C27.5051873,52.9149375 27.6897048,53.6326877 27.9134722,54.3386433 L28.2694545,55.3855855 L28.4380776,55.8997089 L28.5317572,56.1614445 L28.5879649,56.2829645 C29.9363428,59.097861 30.2673242,62.29153 29.5247603,65.3221887 C28.6420372,68.6944706 26.6286684,71.6634589 23.8196763,73.7351171 C23.0667718,74.2678291 22.2744698,74.7428074 21.4495839,75.1559672 L20.8031951,75.4831367 L20.0443908,75.8103061 L18.5361502,76.4459496 L12.475084,79.0259143 L0.37168736,84.1858437 L13.3837755,82.2041317 L19.8851356,81.2693618 L21.5151596,81.016974 L22.3301716,80.8954539 L23.266967,80.7084999 C24.5020351,80.4464565 25.7143085,80.0869991 26.8923652,79.6335147 C31.8524144,77.6281925 35.9839904,74.0031671 38.6116757,69.3510466 C41.3799882,64.336446 42.3484016,58.528635 41.3564863,52.8897501 L41.3564863,52.6186668 L41.3564863,52.1980204 L41.3564863,51.6652016 C41.32826,51.3105474 41.32826,50.9542182 41.3564863,50.599564 L41.3564863,50.0760929 L41.4595337,49.5619695 C41.5002448,49.2234307 41.5691821,48.8888698 41.6656287,48.5617658 C41.9797155,47.278352 42.5361103,46.0664478 43.3050207,44.9909451 C44.6321976,43.0211544 46.6285869,41.5968225 48.9257931,40.9807826 C49.1857972,40.9036551 49.4523368,40.8504625 49.7220692,40.8218717 L50.1061553,40.7470901 L50.5089773,40.7470901 L50.9024314,40.7470901 C50.9803979,40.7526613 51.0586638,40.7526613 51.1366303,40.7470901 L51.5488202,40.6910039 L53.1694763,40.4386161 L59.7270441,39.4477601 L68.8514313,38.0643007 L71.1278442,45.9818011 C71.5669219,47.5134717 72.886206,48.6312611 74.4720742,48.8152656 C76.0579424,48.9992702 77.5990657,48.2133672 78.3786406,46.823094 L92.8708655,20.8084498 C93.9295411,18.9158243 93.2552248,16.525297 91.3626249,15.4615665 Z" id="path-8h-es2gp4k-17"></path>
        <filter x="-47.3%" y="-33.3%" width="194.6%" height="204.8%" filterUnits="objectBoundingBox" id="filter-8h-es2gp4k-18">
            <feMorphology radius="2" operator="erode" in="SourceAlpha" result="shadowSpreadOuter1"></feMorphology>
            <feOffset dx="0" dy="8" in="shadowSpreadOuter1" result="shadowOffsetOuter1"></feOffset>
            <feGaussianBlur stdDeviation="4" in="shadowOffsetOuter1" result="shadowBlurOuter1"></feGaussianBlur>
            <feColorMatrix values="0 0 0 0 0.270588235   0 0 0 0 0.474509804   0 0 0 0 0.960784314  0 0 0 0.12 0" type="matrix" in="shadowBlurOuter1" result="shadowMatrixOuter1"></feColorMatrix>
            <feOffset dx="0" dy="16" in="SourceAlpha" result="shadowOffsetOuter2"></feOffset>
            <feGaussianBlur stdDeviation="12" in="shadowOffsetOuter2" result="shadowBlurOuter2"></feGaussianBlur>
            <feColorMatrix values="0 0 0 0 0.270588235   0 0 0 0 0.474509804   0 0 0 0 0.960784314  0 0 0 0.24 0" type="matrix" in="shadowBlurOuter2" result="shadowMatrixOuter2"></feColorMatrix>
            <feMorphology radius="0.5" operator="erode" in="SourceAlpha" result="shadowSpreadOuter3"></feMorphology>
            <feOffset dx="0" dy="2" in="shadowSpreadOuter3" result="shadowOffsetOuter3"></feOffset>
            <feGaussianBlur stdDeviation="2" in="shadowOffsetOuter3" result="shadowBlurOuter3"></feGaussianBlur>
            <feColorMatrix values="0 0 0 0 0.105882353   0 0 0 0 0.0392156863   0 0 0 0 0.321568627  0 0 0 0.12 0" type="matrix" in="shadowBlurOuter3" result="shadowMatrixOuter3"></feColorMatrix>
            <feOffset dx="0" dy="0" in="SourceAlpha" result="shadowOffsetOuter4"></feOffset>
            <feGaussianBlur stdDeviation="0.5" in="shadowOffsetOuter4" result="shadowBlurOuter4"></feGaussianBlur>
            <feColorMatrix values="0 0 0 0 0.270588235   0 0 0 0 0.474509804   0 0 0 0 0.960784314  0 0 0 0.24 0" type="matrix" in="shadowBlurOuter4" result="shadowMatrixOuter4"></feColorMatrix>
            <feMerge>
                <feMergeNode in="shadowMatrixOuter1"></feMergeNode>
                <feMergeNode in="shadowMatrixOuter2"></feMergeNode>
                <feMergeNode in="shadowMatrixOuter3"></feMergeNode>
                <feMergeNode in="shadowMatrixOuter4"></feMergeNode>
            </feMerge>
        </filter>
        <linearGradient x1="0%" y1="9.35232464%" x2="99.8522915%" y2="90.5275952%" id="linearGradient-8h-es2gp4k-19">
            <stop stop-color="#00FFAA" offset="0%"></stop>
            <stop stop-color="#4579F5" offset="54.9415428%"></stop>
            <stop stop-color="#9C42F5" offset="99.9815245%"></stop>
        </linearGradient>
        <path d="M60.5357067,10.1711817 L43.4107845,0.506885889 C42.4967463,-0.0116274472 41.3585181,0.0727859528 40.5316442,0.720408989 C39.7047704,1.36803203 39.3539165,2.44989546 39.6441619,3.45697493 L41.192594,8.87363219 L35.6256118,11.2361516 L31.6562183,12.9254142 L29.3089918,13.9230585 L28.559354,14.2413253 L27.8342945,14.6330384 C27.3535621,14.8833578 26.8878379,15.1612896 26.4394766,15.4654287 C22.8879006,17.8113682 20.2558444,21.3041556 18.9861108,25.3561836 C18.3664246,27.2740409 18.0938733,29.2863404 18.1811719,31.2992053 C18.1933836,31.7930792 18.2364791,32.2857153 18.3102079,32.7742498 L18.4023765,33.5025913 L18.5559908,34.2186918 C18.6507208,34.6942223 18.7717484,35.1641778 18.9185205,35.6264106 L19.1520142,36.3119085 L19.2626165,36.6485369 L19.3240623,36.8199114 L19.3609297,36.8994781 C20.2453496,38.7425651 20.4624449,40.8336578 19.9753869,42.8180177 C19.3963965,45.0260594 18.0757997,46.9700399 16.2333425,48.3264827 C15.739502,48.6752822 15.21982,48.9862799 14.6787658,49.2568013 L14.2547904,49.4710193 L13.75708,49.6852374 L12.7678039,50.1014326 L8.79226585,51.7906952 L0.853478828,55.1692204 L9.38828934,53.8716708 L13.6526223,53.2596192 L14.7217778,53.0943652 L15.2563556,53.0147985 L15.8708128,52.8923882 C16.6809112,52.7208121 17.4760583,52.4854531 18.2487622,52.1885288 C21.5021277,50.8755202 24.2120862,48.5019917 25.9356217,45.4559604 C27.7513966,42.1725909 28.3865925,38.3698575 27.7359813,34.6777305 L27.7359813,34.5002355 L27.7359813,34.2248123 L27.7359813,33.8759428 C27.7174674,33.6437288 27.7174674,33.410418 27.7359813,33.1782039 L27.7359813,32.835455 L27.8035716,32.4988266 C27.8302746,32.2771642 27.8754915,32.0581065 27.9387522,31.8439313 C28.1447661,31.0036008 28.5097132,30.2100921 29.0140523,29.5058939 C29.8845662,28.21615 31.1940258,27.2835517 32.7007955,26.8801923 C32.8713358,26.8296922 33.0461629,26.7948636 33.2230841,26.7761435 L33.4750116,26.7271794 L33.7392282,26.7271794 L33.9973002,26.7271794 C34.0484395,26.7308272 34.0997752,26.7308272 34.1509145,26.7271794 L34.4212757,26.6904563 L35.4842866,26.5252023 L39.785487,25.8764275 L45.7703001,24.9705911 L47.2634311,30.1546687 C47.5514284,31.1575483 48.4167652,31.8894341 49.4569584,32.0099133 C50.4971515,32.1303925 51.5079958,31.6158131 52.0193299,30.7055152 L61.5249828,13.6721173 C62.2193829,12.4328982 61.7770894,10.8676719 60.5357067,10.1711817 Z" id="path-8h-es2gp4k-20"></path>
        <filter x="-72.1%" y="-50.9%" width="244.3%" height="260.0%" filterUnits="objectBoundingBox" id="filter-8h-es2gp4k-21">
            <feMorphology radius="2" operator="erode" in="SourceAlpha" result="shadowSpreadOuter1"></feMorphology>
            <feOffset dx="0" dy="8" in="shadowSpreadOuter1" result="shadowOffsetOuter1"></feOffset>
            <feGaussianBlur stdDeviation="4" in="shadowOffsetOuter1" result="shadowBlurOuter1"></feGaussianBlur>
            <feColorMatrix values="0 0 0 0 0.270588235   0 0 0 0 0.474509804   0 0 0 0 0.960784314  0 0 0 0.12 0" type="matrix" in="shadowBlurOuter1" result="shadowMatrixOuter1"></feColorMatrix>
            <feOffset dx="0" dy="16" in="SourceAlpha" result="shadowOffsetOuter2"></feOffset>
            <feGaussianBlur stdDeviation="12" in="shadowOffsetOuter2" result="shadowBlurOuter2"></feGaussianBlur>
            <feColorMatrix values="0 0 0 0 0.270588235   0 0 0 0 0.474509804   0 0 0 0 0.960784314  0 0 0 0.24 0" type="matrix" in="shadowBlurOuter2" result="shadowMatrixOuter2"></feColorMatrix>
            <feMorphology radius="0.5" operator="erode" in="SourceAlpha" result="shadowSpreadOuter3"></feMorphology>
            <feOffset dx="0" dy="2" in="shadowSpreadOuter3" result="shadowOffsetOuter3"></feOffset>
            <feGaussianBlur stdDeviation="2" in="shadowOffsetOuter3" result="shadowBlurOuter3"></feGaussianBlur>
            <feColorMatrix values="0 0 0 0 0.105882353   0 0 0 0 0.0392156863   0 0 0 0 0.321568627  0 0 0 0.12 0" type="matrix" in="shadowBlurOuter3" result="shadowMatrixOuter3"></feColorMatrix>
            <feOffset dx="0" dy="0" in="SourceAlpha" result="shadowOffsetOuter4"></feOffset>
            <feGaussianBlur stdDeviation="0.5" in="shadowOffsetOuter4" result="shadowBlurOuter4"></feGaussianBlur>
            <feColorMatrix values="0 0 0 0 0.270588235   0 0 0 0 0.474509804   0 0 0 0 0.960784314  0 0 0 0.24 0" type="matrix" in="shadowBlurOuter4" result="shadowMatrixOuter4"></feColorMatrix>
            <feMerge>
                <feMergeNode in="shadowMatrixOuter1"></feMergeNode>
                <feMergeNode in="shadowMatrixOuter2"></feMergeNode>
                <feMergeNode in="shadowMatrixOuter3"></feMergeNode>
                <feMergeNode in="shadowMatrixOuter4"></feMergeNode>
            </feMerge>
        </filter>
        <rect id="path-8h-es2gp4k-22" x="0" y="0" width="72" height="72" rx="36"></rect>
        <filter x="-30.6%" y="-19.4%" width="161.1%" height="161.1%" filterUnits="objectBoundingBox" id="filter-8h-es2gp4k-23">
            <feOffset dx="0" dy="8" in="SourceAlpha" result="shadowOffsetOuter1"></feOffset>
            <feGaussianBlur stdDeviation="6" in="shadowOffsetOuter1" result="shadowBlurOuter1"></feGaussianBlur>
            <feColorMatrix values="0 0 0 0 0.0784313725   0 0 0 0 0.062745098   0 0 0 0 0.160784314  0 0 0 0.06 0" type="matrix" in="shadowBlurOuter1" result="shadowMatrixOuter1"></feColorMatrix>
            <feMorphology radius="0.5" operator="erode" in="SourceAlpha" result="shadowSpreadOuter2"></feMorphology>
            <feOffset dx="0" dy="2" in="shadowSpreadOuter2" result="shadowOffsetOuter2"></feOffset>
            <feGaussianBlur stdDeviation="2" in="shadowOffsetOuter2" result="shadowBlurOuter2"></feGaussianBlur>
            <feColorMatrix values="0 0 0 0 0.0784313725   0 0 0 0 0.062745098   0 0 0 0 0.160784314  0 0 0 0.06 0" type="matrix" in="shadowBlurOuter2" result="shadowMatrixOuter2"></feColorMatrix>
            <feOffset dx="0" dy="0" in="SourceAlpha" result="shadowOffsetOuter3"></feOffset>
            <feGaussianBlur stdDeviation="0.5" in="shadowOffsetOuter3" result="shadowBlurOuter3"></feGaussianBlur>
            <feColorMatrix values="0 0 0 0 0.0784313725   0 0 0 0 0.062745098   0 0 0 0 0.160784314  0 0 0 0.12 0" type="matrix" in="shadowBlurOuter3" result="shadowMatrixOuter3"></feColorMatrix>
            <feMerge>
                <feMergeNode in="shadowMatrixOuter1"></feMergeNode>
                <feMergeNode in="shadowMatrixOuter2"></feMergeNode>
                <feMergeNode in="shadowMatrixOuter3"></feMergeNode>
            </feMerge>
        </filter>
        <path d="M60.5357067,10.1711817 L43.4107845,0.506885889 C42.4967463,-0.0116274472 41.3585181,0.0727859528 40.5316442,0.720408989 C39.7047704,1.36803203 39.3539165,2.44989546 39.6441619,3.45697493 L41.192594,8.87363219 L35.6256118,11.2361516 L31.6562183,12.9254142 L29.3089918,13.9230585 L28.559354,14.2413253 L27.8342945,14.6330384 C27.3535621,14.8833578 26.8878379,15.1612896 26.4394766,15.4654287 C22.8879006,17.8113682 20.2558444,21.3041556 18.9861108,25.3561836 C18.3664246,27.2740409 18.0938733,29.2863404 18.1811719,31.2992053 C18.1933836,31.7930792 18.2364791,32.2857153 18.3102079,32.7742498 L18.4023765,33.5025913 L18.5559908,34.2186918 C18.6507208,34.6942223 18.7717484,35.1641778 18.9185205,35.6264106 L19.1520142,36.3119085 L19.2626165,36.6485369 L19.3240623,36.8199114 L19.3609297,36.8994781 C20.2453496,38.7425651 20.4624449,40.8336578 19.9753869,42.8180177 C19.3963965,45.0260594 18.0757997,46.9700399 16.2333425,48.3264827 C15.739502,48.6752822 15.21982,48.9862799 14.6787658,49.2568013 L14.2547904,49.4710193 L13.75708,49.6852374 L12.7678039,50.1014326 L8.79226585,51.7906952 L0.853478828,55.1692204 L9.38828934,53.8716708 L13.6526223,53.2596192 L14.7217778,53.0943652 L15.2563556,53.0147985 L15.8708128,52.8923882 C16.6809112,52.7208121 17.4760583,52.4854531 18.2487622,52.1885288 C21.5021277,50.8755202 24.2120862,48.5019917 25.9356217,45.4559604 C27.7513966,42.1725909 28.3865925,38.3698575 27.7359813,34.6777305 L27.7359813,34.5002355 L27.7359813,34.2248123 L27.7359813,33.8759428 C27.7174674,33.6437288 27.7174674,33.410418 27.7359813,33.1782039 L27.7359813,32.835455 L27.8035716,32.4988266 C27.8302746,32.2771642 27.8754915,32.0581065 27.9387522,31.8439313 C28.1447661,31.0036008 28.5097132,30.2100921 29.0140523,29.5058939 C29.8845662,28.21615 31.1940258,27.2835517 32.7007955,26.8801923 C32.8713358,26.8296922 33.0461629,26.7948636 33.2230841,26.7761435 L33.4750116,26.7271794 L33.7392282,26.7271794 L33.9973002,26.7271794 C34.0484395,26.7308272 34.0997752,26.7308272 34.1509145,26.7271794 L34.4212757,26.6904563 L35.4842866,26.5252023 L39.785487,25.8764275 L45.7703001,24.9705911 L47.2634311,30.1546687 C47.5514284,31.1575483 48.4167652,31.8894341 49.4569584,32.0099133 C50.4971515,32.1303925 51.5079958,31.6158131 52.0193299,30.7055152 L61.5249828,13.6721173 C62.2193829,12.4328982 61.7770894,10.8676719 60.5357067,10.1711817 Z" id="path-8h-es2gp4k-24"></path>
        <filter x="-72.1%" y="-50.9%" width="244.3%" height="260.0%" filterUnits="objectBoundingBox" id="filter-8h-es2gp4k-25">
            <feMorphology radius="2" operator="erode" in="SourceAlpha" result="shadowSpreadOuter1"></feMorphology>
            <feOffset dx="0" dy="8" in="shadowSpreadOuter1" result="shadowOffsetOuter1"></feOffset>
            <feGaussianBlur stdDeviation="4" in="shadowOffsetOuter1" result="shadowBlurOuter1"></feGaussianBlur>
            <feColorMatrix values="0 0 0 0 0.270588235   0 0 0 0 0.474509804   0 0 0 0 0.960784314  0 0 0 0.12 0" type="matrix" in="shadowBlurOuter1" result="shadowMatrixOuter1"></feColorMatrix>
            <feOffset dx="0" dy="16" in="SourceAlpha" result="shadowOffsetOuter2"></feOffset>
            <feGaussianBlur stdDeviation="12" in="shadowOffsetOuter2" result="shadowBlurOuter2"></feGaussianBlur>
            <feColorMatrix values="0 0 0 0 0.270588235   0 0 0 0 0.474509804   0 0 0 0 0.960784314  0 0 0 0.24 0" type="matrix" in="shadowBlurOuter2" result="shadowMatrixOuter2"></feColorMatrix>
            <feMorphology radius="0.5" operator="erode" in="SourceAlpha" result="shadowSpreadOuter3"></feMorphology>
            <feOffset dx="0" dy="2" in="shadowSpreadOuter3" result="shadowOffsetOuter3"></feOffset>
            <feGaussianBlur stdDeviation="2" in="shadowOffsetOuter3" result="shadowBlurOuter3"></feGaussianBlur>
            <feColorMatrix values="0 0 0 0 0.105882353   0 0 0 0 0.0392156863   0 0 0 0 0.321568627  0 0 0 0.12 0" type="matrix" in="shadowBlurOuter3" result="shadowMatrixOuter3"></feColorMatrix>
            <feOffset dx="0" dy="0" in="SourceAlpha" result="shadowOffsetOuter4"></feOffset>
            <feGaussianBlur stdDeviation="0.5" in="shadowOffsetOuter4" result="shadowBlurOuter4"></feGaussianBlur>
            <feColorMatrix values="0 0 0 0 0.270588235   0 0 0 0 0.474509804   0 0 0 0 0.960784314  0 0 0 0.24 0" type="matrix" in="shadowBlurOuter4" result="shadowMatrixOuter4"></feColorMatrix>
            <feMerge>
                <feMergeNode in="shadowMatrixOuter1"></feMergeNode>
                <feMergeNode in="shadowMatrixOuter2"></feMergeNode>
                <feMergeNode in="shadowMatrixOuter3"></feMergeNode>
                <feMergeNode in="shadowMatrixOuter4"></feMergeNode>
            </feMerge>
        </filter>
        <rect id="path-8h-es2gp4k-26" x="0" y="0" width="128" height="128" rx="64"></rect>
        <filter x="-17.2%" y="-10.9%" width="134.4%" height="134.4%" filterUnits="objectBoundingBox" id="filter-8h-es2gp4k-27">
            <feOffset dx="0" dy="8" in="SourceAlpha" result="shadowOffsetOuter1"></feOffset>
            <feGaussianBlur stdDeviation="6" in="shadowOffsetOuter1" result="shadowBlurOuter1"></feGaussianBlur>
            <feColorMatrix values="0 0 0 0 0.0784313725   0 0 0 0 0.062745098   0 0 0 0 0.160784314  0 0 0 0.06 0" type="matrix" in="shadowBlurOuter1" result="shadowMatrixOuter1"></feColorMatrix>
            <feMorphology radius="0.5" operator="erode" in="SourceAlpha" result="shadowSpreadOuter2"></feMorphology>
            <feOffset dx="0" dy="2" in="shadowSpreadOuter2" result="shadowOffsetOuter2"></feOffset>
            <feGaussianBlur stdDeviation="2" in="shadowOffsetOuter2" result="shadowBlurOuter2"></feGaussianBlur>
            <feColorMatrix values="0 0 0 0 0.0784313725   0 0 0 0 0.062745098   0 0 0 0 0.160784314  0 0 0 0.06 0" type="matrix" in="shadowBlurOuter2" result="shadowMatrixOuter2"></feColorMatrix>
            <feOffset dx="0" dy="0" in="SourceAlpha" result="shadowOffsetOuter3"></feOffset>
            <feGaussianBlur stdDeviation="0.5" in="shadowOffsetOuter3" result="shadowBlurOuter3"></feGaussianBlur>
            <feColorMatrix values="0 0 0 0 0.0784313725   0 0 0 0 0.062745098   0 0 0 0 0.160784314  0 0 0 0.12 0" type="matrix" in="shadowBlurOuter3" result="shadowMatrixOuter3"></feColorMatrix>
            <feMerge>
                <feMergeNode in="shadowMatrixOuter1"></feMergeNode>
                <feMergeNode in="shadowMatrixOuter2"></feMergeNode>
                <feMergeNode in="shadowMatrixOuter3"></feMergeNode>
            </feMerge>
        </filter>
        <linearGradient x1="0%" y1="0%" x2="99.8522915%" y2="99.8522915%" id="linearGradient-8h-es2gp4k-28">
            <stop stop-color="#00FFAA" offset="0%"></stop>
            <stop stop-color="#4579F5" offset="53.0854096%"></stop>
            <stop stop-color="#9C42F5" offset="99.9815245%"></stop>
        </linearGradient>
    </defs>
    <g id="01_main" stroke="none" stroke-width="1" fill="none" fill-rule="evenodd">
        <g id="3.-For-Employee" transform="translate(-248.000000, -2172.000000)">
            <g id="Group-14-Copy-4" transform="translate(0.000000, 1987.000000)">
                <g id="Group-23" transform="translate(1020.000000, 478.000000)">
                    <g id="Rectangle">
                        <use fill="black" fill-opacity="1" filter="url(#filter-8h-es2gp4k-2)" xlink:href="#path-8h-es2gp4k-1"></use>
                        <use fill="#FFFFFF" fill-rule="evenodd" xlink:href="#path-8h-es2gp4k-1"></use>
                    </g>
                    <g id="Etoro_logo" transform="translate(25.000000, 81.000000)" fill="#5C9F04" fill-rule="nonzero">
                        <path d="M15.2255126,0.00115247271 C14.6947324,-0.0262011124 14.3435615,0.442441354 14.3435615,0.442441354 C14.3435615,0.442441354 8.61740278,7.34344313 5.24625423,11.5023913 C1.87475288,15.6612793 0.657107919,18.5570213 0.657107919,18.5570213 C-1.71368534,24.5449356 3.09311649,28.4644774 3.09311649,28.4644774 C8.09582661,32.6015782 13.5332841,32.5797217 13.5332841,32.5797217 C13.446343,28.7910062 13.5983615,26.5483518 13.5983615,26.5483518 C13.968173,22.520135 18.2526458,18.5354832 18.2526458,18.5354832 C16.7945138,18.6481025 13.8826006,18.6417529 12.2760432,17.1872394 C10.6696496,15.7327001 11.6854352,12.2797632 11.6854352,12.2797632 L15.8436639,1.24655517 C15.8436639,1.24655517 16.3634759,0.489536921 15.6192529,0.111152702 C15.4796354,0.0401927265 15.3476646,0.00750626154 15.2252157,0.00115247271 L15.2255126,0.00115247271 Z M149.744003,0.00115247272 C149.621653,0.0041679074 149.489263,0.0402228903 149.349218,0.111152702 C148.603548,0.489536921 149.124495,1.24655517 149.124495,1.24655517 L153.29086,12.2797632 C153.29086,12.2797632 154.308692,15.7327045 152.698992,17.1872394 C151.08943,18.6417574 148.171423,18.6480936 146.710373,18.5354832 C146.710373,18.5354832 151.003705,22.5201309 151.374251,26.5483518 C151.374251,26.5483518 151.526647,28.7910062 151.439369,32.5797229 C151.439369,32.5797229 156.888009,32.6016034 161.900658,28.4644774 C161.900658,28.4644774 166.717137,24.5449356 164.341568,18.5570213 C164.341568,18.5570213 163.121376,15.6612793 159.743308,11.5023913 C156.365167,7.34344313 150.627911,0.442441354 150.627911,0.442441354 C150.627911,0.442441354 150.275764,-0.0261278912 149.743922,0.00115247272 L149.744003,0.00115247272 Z M29.9622311,17.7684894 C29.9622311,17.7684894 18.2631406,17.72421 16.7621689,28.0659463 L16.7621689,41.634063 C16.7621689,41.634063 16.9389119,51.2685578 30.5360622,51.9756878 C30.5360622,51.9756878 37.6875839,52.7269835 42.8528372,45.8767295 L37.0257449,42.0318346 C37.0257449,42.0318346 34.2444832,45.6115117 30.668631,45.3905383 C27.0928652,45.1695712 23.6936186,43.8437151 23.6936186,40.1755208 L23.6936186,37.1704073 L42.0140099,37.1704073 C42.0140099,37.1704073 43.2945126,37.4354394 43.2945126,35.137289 L43.2945126,28.3753349 C43.2945126,28.3753349 43.4711753,18.2104579 29.9622311,17.7684894 Z M133.904567,17.86025 C133.904567,17.86025 122.168328,18.0820121 120.507446,28.390192 L120.507446,41.7465916 C120.507446,41.7465916 120.950451,50.5028604 133.683043,51.6666727 C133.683043,51.6666727 146.416026,52.4428141 148.021455,41.4141822 L148.021455,27.3929704 C148.021455,27.3929704 146.858926,18.3036109 133.904567,17.86025 Z M86.1029595,17.9486343 C86.1029595,17.9486343 74.3666324,18.1704138 72.7058987,28.4785892 L72.7058987,41.8346144 C72.7058987,41.8346144 73.1488147,50.5912516 85.8816179,51.7550734 C85.8816179,51.7550734 98.6143929,52.530837 100.219853,41.5022082 L100.219853,27.4809627 C100.219853,27.4809627 99.0570918,18.3919996 86.1029595,17.9486343 Z M117.865569,18.0544734 C105.781468,18.2072013 104.352024,27.7595345 104.352024,27.7595345 L104.352024,51.5389205 L111.179326,51.5389205 L111.179326,28.8180626 C111.179326,28.8180626 112.387808,25.1575831 116.661311,24.8929509 C116.661311,24.8929509 118.512051,19.644342 121.90436,18.3211732 C120.668772,18.1523303 119.518899,18.0674523 118.449188,18.0544734 C118.252055,18.0538358 118.057453,18.0538358 117.865569,18.0544734 L117.865569,18.0544734 Z M59.8223661,18.4567349 C59.3580378,18.4550032 58.889215,18.457585 58.4176496,18.4740523 C50.8707352,18.7287078 47.9453333,19.3232157 43.5359281,20.6390098 C43.5359281,20.6390098 46.3763757,23.355282 46.5035603,26.4961952 C46.5035603,26.4961952 51.5489825,25.0956654 54.6864887,25.2229998 L54.6864887,51.5387946 L61.5549135,51.5387946 L61.5549135,25.392729 C61.5549135,25.392729 66.7700399,25.3080276 69.5259924,26.5389437 C69.5259924,26.5389437 69.2291761,23.907291 72.748368,20.6390261 C72.748368,20.6390261 66.7861715,18.5125663 59.8223661,18.4566187 L59.8223661,18.4567349 Z M30.748748,24.4825394 C33.8444265,24.5093751 36.4971858,26.4726621 36.5398501,28.6847279 L36.5398501,31.4692112 L23.6936186,31.4692112 L23.6936186,28.198549 C23.6936186,28.198549 25.1968021,24.6543112 30.4479338,24.4862655 C30.5485447,24.4849746 30.6490019,24.4841244 30.748748,24.4845337 L30.748748,24.4825394 Z M134.01551,24.6771762 C139.662252,24.6217711 141.046188,27.0046657 141.046188,28.6672647 L141.046188,40.139488 C141.046188,40.139488 140.27095,44.6838964 134.458338,44.5730491 C128.645408,44.4622082 127.427628,41.5247838 127.427628,39.2525497 L127.427628,29.0550221 C127.427628,29.0550221 128.368973,24.73259 134.01551,24.6771762 L134.01551,24.6771762 Z M86.2138269,24.7651902 C91.8605624,24.7097981 93.2444673,27.0930501 93.2444673,28.7556704 L93.2444673,40.2275109 C93.2444673,40.2275109 92.4692668,44.7719192 86.6565385,44.6610626 C80.843741,44.5502437 79.6259736,41.6131813 79.6259736,39.3409472 L79.6259736,29.1434153 C79.6259736,29.1434153 80.5672298,24.8206081 86.2138269,24.7651902 L86.2138269,24.7651902 Z" id="path828"></path>
                    </g>
                </g>
                <g id="Group-24" transform="translate(260.000000, 216.000000)">
                    <g id="Rectangle">
                        <use fill="black" fill-opacity="1" filter="url(#filter-8h-es2gp4k-4)" xlink:href="#path-8h-es2gp4k-3"></use>
                        <use fill="#FFFFFF" fill-rule="evenodd" xlink:href="#path-8h-es2gp4k-3"></use>
                    </g>
                    <g id="coinbase-new-2021-seeklogo.com" transform="translate(28.000000, 28.000000)" fill-rule="nonzero">
                        <g id="Group">
                            <circle id="Oval" fill="#3259A5" cx="44" cy="44" r="44"></circle>
                            <path d="M59.1761637,46.8696966 C57.8319374,53.9925855 51.5820404,59.3785528 44.0694769,59.3785528 C35.5751751,59.3785528 28.6909241,52.4943018 28.6909241,44 C28.6909241,35.5056982 35.5751751,28.6214472 44.0694769,28.6214472 C51.5820404,28.6214472 57.8319374,34.0104353 59.1761637,41.1303034 L74.6936702,41.1303034 C73.246739,25.4889469 60.0884251,13.2428944 44.0694769,13.2428944 C27.0808733,13.2428944 13.3123713,27.0144171 13.3123713,44 C13.3123713,60.9886036 27.083894,74.7571056 44.0694769,74.7571056 C60.0884251,74.7571056 73.246739,62.5110531 74.6936702,46.8696966 L59.1761637,46.8696966 Z" id="Path" fill="#FFFFFF"></path>
                        </g>
                    </g>
                </g>
                <g id="Group-24-Copy" transform="translate(355.000000, 406.000000)">
                    <g id="Rectangle">
                        <use fill="black" fill-opacity="1" filter="url(#filter-8h-es2gp4k-6)" xlink:href="#path-8h-es2gp4k-5"></use>
                        <use fill="#FFFFFF" fill-rule="evenodd" xlink:href="#path-8h-es2gp4k-5"></use>
                    </g>
                    <g id="Gemini_(digital_currency_exchange)_logo" transform="translate(15.000000, 15.000000)" fill="#00DCFA" fill-rule="nonzero">
                        <path d="M27.4482348,0 C20.0611781,0 13.7858813,5.68235563 12.99529,12.99529 C5.68235563,13.7858813 0,20.0611781 0,27.4482348 C0,35.4776475 6.52235246,42 14.5517652,42 C21.9388219,42 28.2388168,36.3176444 29.0047006,29.0047006 C36.3176444,28.2141187 42,21.9388219 42,14.5517652 C42,6.52235246 35.4776475,0 27.4482348,0 L27.4482348,0 Z M38.5905885,16.1823533 C37.8741102,21.0494102 33.9705873,24.9529424 29.1035304,25.6694114 L29.1035304,16.1823533 L38.5905885,16.1823533 Z M3.40941151,25.8176467 C4.12588049,20.9258824 8.02941273,17.0223501 12.8964696,16.3058811 L12.8964696,25.7929393 L3.40941151,25.7929393 L3.40941151,25.8176467 Z M25.6941189,29.1035304 C24.8788201,34.6129339 20.1599985,38.7141163 14.5517652,38.7141163 C8.94353186,38.7141163 4.2247009,34.6129339 3.40941151,29.1035304 L25.6941189,29.1035304 Z M25.8176467,16.1823533 L25.8176467,25.7929393 L16.1823533,25.7929393 L16.1823533,16.1823533 L25.8176467,16.1823533 Z M38.5905885,12.8964696 L16.3058811,12.8964696 C17.1211705,7.38705672 21.8400015,3.28588367 27.4482348,3.28588367 C33.0564681,3.28588367 37.7752898,7.38705672 38.5905885,12.8964696 L38.5905885,12.8964696 Z" id="path1776"></path>
                    </g>
                </g>
                <g id="Group-24-Copy-2" transform="translate(299.000000, 540.000000)">
                    <g id="Rectangle">
                        <use fill="black" fill-opacity="1" filter="url(#filter-8h-es2gp4k-8)" xlink:href="#path-8h-es2gp4k-7"></use>
                        <use fill="#FFFFFF" fill-rule="evenodd" xlink:href="#path-8h-es2gp4k-7"></use>
                    </g>
                    <g id="Robinhood_logo" transform="translate(32.000000, 23.000000)" fill="#00C805" fill-rule="nonzero">
                        <path d="M40.3188657,0.00395509376 C37.6207782,-0.0542911377 34.4130034,0.531167382 30.7793288,1.73612131 C30.2342193,1.92835785 29.80329,2.23202925 29.4151962,2.61626252 C25.7194257,6.10502003 22.1241291,9.80353588 18.7257041,13.6273171 L18.4649726,13.9175655 C18.3927458,13.9997814 18.383926,14.1222662 18.437083,14.217186 C18.492147,14.3133043 18.5996529,14.3629214 18.7071111,14.3389518 L19.088888,14.2593726 C24.5656803,13.0820557 30.0952244,12.1782803 35.5188836,11.5815081 C35.8759175,11.5419582 36.2442502,11.6649224 36.5105358,11.909221 C36.7768214,12.1559885 36.9320732,12.5080067 36.9248982,12.8736396 C36.8352703,18.2865841 37.0273983,23.7262788 37.5068602,29.0437762 L37.5395172,29.3902095 C37.5514358,29.496395 37.6241393,29.5819666 37.7304533,29.6102508 C37.7495231,29.6150447 37.7671626,29.6198661 37.7909998,29.6198661 C37.8710929,29.6210371 37.9516627,29.5829254 38.000529,29.5122149 L38.2007617,29.2266406 C41.2564789,24.8421136 44.5832015,20.5798557 48.0801696,16.5489528 C48.471839,16.1004808 48.5747204,15.8183821 48.6481629,15.4113296 C49.7491327,8.32573551 48.0499202,3.08549225 46.5298206,1.75987523 C45.2097152,0.608948872 43.2942276,0.0685293108 40.319104,0.00426669911 L40.3188657,0.00395509376 Z M31.9292841,14.3576481 L31.5940612,14.4043889 C26.3614574,15.1290392 21.0643501,16.1329597 15.8484561,17.386548 C15.3314268,17.5318041 14.9994697,17.8696802 14.926647,17.9483245 C11.0230874,22.6492508 7.32579135,27.5970405 3.93451754,32.6671952 C3.76503489,32.9235505 3.74834884,33.5379644 3.74834884,33.5379644 C3.74834884,33.5379644 4.59914695,40.1423919 5.84342607,45.0078218 C2.7602245,53.9239536 0.00981438346,65.6722664 0.00981438346,65.6722664 C-0.0116391158,65.7484899 0.00266321704,65.8280691 0.0470004489,65.8923077 C0.0934830306,65.9565464 0.167140045,65.9975345 0.247233109,65.9999664 L2.00243923,65.9999664 C2.11352068,66.0017292 2.2102998,65.9340149 2.24920215,65.8314249 L2.37029523,65.4990378 C4.16144789,60.5861719 6.20308206,55.7362983 8.45994251,51.0095806 C8.98536254,49.9084872 10.0941032,47.6856624 10.0941032,47.6856624 C10.2762196,47.3248234 11.1268985,45.6841972 11.3185498,45.3167905 L11.3512068,45.2513534 C17.0339765,34.4716538 23.9615736,24.3039712 31.9340754,15.0317943 L32.1529011,14.7789865 C32.2203604,14.6984485 32.2344243,14.5817163 32.185558,14.4887381 C32.1331162,14.3950168 32.0310928,14.3437218 31.9294986,14.3576242 L31.9292841,14.3576481 Z M34.3409434,16.3894349 C34.2424957,16.3522819 34.1290305,16.3774501 34.061595,16.4596659 L33.8427694,16.7171478 C24.5466106,27.5280798 16.7339612,39.5273788 10.6201192,52.3813633 L10.4756656,52.6809838 C10.429183,52.7759036 10.447061,52.8902388 10.5176191,52.9665581 C10.5660087,53.0168944 10.6298924,53.0454183 10.6992588,53.0462865 C10.7302472,53.0473358 10.7700553,53.0413434 10.8017588,53.0269616 L11.1090206,52.8958477 C16.3302779,50.7206985 21.6640231,48.8360614 26.9617025,47.296683 C27.2787375,47.2041602 27.5428063,46.9828724 27.692647,46.6880938 C30.0152029,42.1366661 35.4071585,33.3268877 35.4071585,33.3268877 C35.5456528,33.1281793 35.5141876,32.8306442 35.5141876,32.8306442 C35.5141876,32.8306442 34.5670872,22.2932297 34.5085668,16.9601041 L34.5037993,16.623043 C34.4990319,16.5173369 34.4375319,16.4243347 34.3407527,16.3888596 L34.3409434,16.3894349 Z M20.5553777,51.7774242 L20.1223984,51.9272344 C17.3156371,52.8650227 13.1631932,54.3064372 9.43755463,56.0282965 C9.23803709,56.1224972 9.10700389,56.3841018 9.10700389,56.3841018 C9.03763757,56.5444587 8.95349218,56.7447491 8.85559271,56.9692967 L8.84129038,56.9973412 C8.42394831,57.9525314 7.84479918,59.3900628 7.59822696,59.9748262 L7.40729081,60.4383032 C7.37749429,60.5116503 7.3953722,60.5936265 7.4537734,60.6489964 C7.48833737,60.6820745 7.52814553,60.6986135 7.57939555,60.7005311 C7.6056165,60.7005311 7.63565139,60.6957372 7.66330257,60.6813554 L8.11489873,60.466108 C9.13408297,59.9785894 10.4260127,59.2400848 11.7789419,58.5934797 L11.8254245,58.56951 C14.3981519,57.3423362 17.3017162,55.9572984 19.0510822,55.1191759 C19.0510822,55.1179774 19.3326713,54.9664892 19.474765,54.6837913 L20.7830232,52.0433913 C20.8175872,51.9743588 20.8075755,51.8916635 20.759186,51.8326982 C20.706029,51.775171 20.6271278,51.7523999 20.5544242,51.7766092 L20.5553777,51.7774242 Z" id="path127"></path>
                    </g>
                </g>
                <g id="-1" transform="translate(490.477890, 570.986518) scale(1, -1) rotate(51.000000) translate(-490.477890, -570.986518) translate(428.477890, 508.986518)">
                    <path d="M120.342853,33.1974956 L100.519053,22.0818463 L100.519053,22.0818463 L85.8122721,13.6957064 C85.5673296,13.5539338 85.310267,13.4340748 85.0440999,13.3375354 C84.5473624,13.1502267 84.0253731,13.0378333 83.4953655,13.004066 C82.9911869,12.9847014 82.4867327,13.0345718 81.9961907,13.1522746 C81.0516219,13.4087517 80.1949707,13.9168485 79.5182157,14.6220105 C78.7676561,15.3405295 78.2572013,16.2719686 78.0562105,17.2897663 C77.9751836,17.8136354 77.9751836,18.3467896 78.0562105,18.8706587 C78.0902055,19.1509252 78.1482373,19.4277713 78.2296688,19.698157 L81.3519172,30.6285455 L70.1266907,35.395924 L65.5052675,37.3596887 L62.1228317,38.8047232 L57.3775097,40.7561372 L55.865945,41.4230761 L54.4039398,42.2135223 C53.4342931,42.7226527 52.4952037,43.2876249 51.5914382,43.9055711 C50.6869773,44.486055 49.832076,45.1406433 48.9895645,45.7705301 C48.5930885,46.0792981 48.2337822,46.4251183 47.849696,46.7462371 C47.4656099,47.0673558 47.0071846,47.4502282 46.6107086,47.8331006 C46.2142326,48.2159729 45.6442984,48.7964568 45.1734831,49.2904857 C44.9380755,49.5375001 44.690278,49.7845146 44.4548704,50.0438797 C43.9097159,50.6490651 43.401731,51.2789519 42.8937462,51.9211894 L42.5096601,52.3905168 C41.9645056,53.1068586 41.4441308,53.8602527 40.9485358,54.6136467 C40.9485358,54.7001017 40.837027,54.774206 40.7874675,54.8483104 C40.2670927,55.6758087 39.7714977,56.5156578 39.3130724,57.3184547 L39.3130724,57.3184547 C38.3782169,59.0690905 37.5828164,60.8902526 36.9342164,62.7651229 L36.9342164,62.7651229 C36.8227076,63.0738909 36.6988088,63.3950096 36.5996898,63.7037777 C36.289943,64.6918354 36.0173657,65.6798931 35.794348,66.6679508 C35.5713302,67.6560086 35.397872,68.6687677 35.2615834,69.6815269 C35.0018662,71.679443 34.914817,73.6959079 35.001396,75.708679 C35.001396,76.2027078 35.001396,76.7090874 35.0881251,77.2031163 C35.1748542,77.6971451 35.199634,78.191174 35.2615834,78.6852029 L35.4102619,80.2784459 L35.7200087,81.7234803 C35.9125273,82.6827218 36.1565457,83.6309738 36.4510113,84.5641463 L36.9218266,85.9474271 L37.1448443,86.6267168 L37.2687431,86.972537 L37.3430823,87.1330964 C37.7751662,88.0154713 38.1316129,88.9326934 38.4086115,89.8749565 C38.5449002,90.3442839 38.6687989,90.8259621 38.7679179,91.3199909 C38.9567229,92.3183609 39.064451,93.3302831 39.0900546,94.3459177 C39.0900546,94.9264016 39.0900546,95.4945348 39.0900546,96.0750187 C39.0012442,96.995236 38.8438714,97.907591 38.6192394,98.8045282 C38.6192394,98.9033339 38.6192394,99.0144904 38.55729,99.1132962 L38.55729,99.1132962 C38.4333913,99.5702729 38.2971027,100.014899 38.1484242,100.459525 L37.962576,100.990606 C37.863457,101.249971 37.764338,101.509336 37.6528292,101.756351 C37.4050317,102.336835 37.1448443,102.917318 36.8474873,103.485452 C36.5501303,104.053585 36.1164847,104.720524 35.7076189,105.350411 L35.7076189,105.350411 C35.3237402,105.90337 34.9101403,106.435228 34.4686314,106.943654 L34.1341048,107.326526 C33.7871883,107.721749 33.415492,108.104621 33.0314059,108.487494 L32.6225401,108.882717 C32.1021653,109.352044 31.5694007,109.809021 30.9994665,110.228946 C30.0036896,110.932796 28.9558063,111.560364 27.8648282,112.106255 L27.4435724,112.328568 L27.0099268,112.53853 L26.006347,112.958455 L24.0115771,113.810655 L18.3989639,116.194344 L15.9953282,117.219454 L0,124 L17.2095359,121.381647 L25.808109,120.072471 L27.9639472,119.800755 L29.0418663,119.640195 L30.2808537,119.38083 C31.0096147,119.24759 31.7295599,119.070235 32.4366919,118.849749 L33.0933553,118.652138 C33.7624085,118.442175 34.4314618,118.219862 35.1129049,117.972848 C35.794348,117.725833 36.4757911,117.392364 37.1448443,117.071245 L37.7767279,116.737776 C38.259933,116.490761 38.7307483,116.231396 39.2015635,115.95968 L40.2794826,115.292741 C40.6511789,115.045727 41.0228751,114.798712 41.3821815,114.539347 C41.7414878,114.279982 42.1255739,113.995916 42.4848803,113.711849 C42.6335588,113.600693 42.7822373,113.489536 42.9185259,113.366029 C44.2470128,112.308267 45.4898447,111.147827 46.6354883,109.895476 L46.6354883,109.895476 C47.2467221,109.220303 47.8290463,108.516312 48.3824607,107.783503 L48.9276151,107.05481 L49.4851595,106.239662 C49.8940254,105.622126 50.2905014,105.00459 50.724147,104.350002 L50.724147,104.350002 C51.120623,103.63366 51.4923192,102.892617 51.8392357,102.139223 L52.0374737,101.274672 C52.2233218,100.805345 52.4215598,100.348368 52.5950181,99.8790409 L53.0038839,98.6439688 C53.1153928,98.2857979 53.2269017,97.9276269 53.3260207,97.5571053 C53.4251397,97.1865836 53.6109878,96.593749 53.7224966,96.0997202 C53.7224966,95.9021086 53.8092258,95.7168478 53.8463954,95.531587 C54.4838159,92.6711225 54.7379578,89.7390373 54.6021778,86.8119776 L54.6021778,86.8119776 C54.6021778,86.1573894 54.5402284,85.5028011 54.4658891,84.8358622 C54.3915499,84.1689232 54.3048208,83.3290741 54.1685321,82.5633294 L54.1685321,82.2175092 L54.1685321,81.6370253 L54.1685321,80.9206834 C54.1437982,80.6866674 54.1437982,80.4507084 54.1685321,80.2166923 C54.1685321,79.9820286 54.1685321,79.7473649 54.1685321,79.5250519 L54.1685321,78.8334115 L54.3048208,78.1541218 C54.3574304,77.7066256 54.4486268,77.2644809 54.577398,76.8325946 L54.6889069,76.4497223 C54.8467547,75.9012196 55.0328495,75.3611888 55.2464512,74.8317777 C55.6418606,73.8726353 56.144779,72.9611278 56.7456261,72.114619 C58.5009246,69.5120171 61.1413104,67.6301072 64.1795509,66.8161595 C64.3161691,66.768809 64.4573415,66.7356969 64.6008066,66.7173537 C64.6584808,66.7115756 64.7165907,66.7115756 64.7742649,66.7173537 C64.9353332,66.7173537 65.0840117,66.7173537 65.2326902,66.6432494 L65.7406751,66.5444436 L66.2734397,66.5444436 L66.7566448,66.5444436 L66.9177132,66.5444436 L67.1035613,66.5444436 L67.6487158,66.4579886 L69.7921641,66.1368698 L78.4650764,64.8276933 L90.5328143,62.9997866 L93.5559438,73.5967056 C93.8411817,74.6309862 94.4432598,75.5506796 95.2781364,76.2274093 C96.2493347,77.0051193 97.4646927,77.416248 98.7101316,77.3883771 L98.7844709,77.3883771 C99.2035754,77.3780765 99.6197668,77.3158451 100.023458,77.2031163 L100.469494,77.0549076 C101.620348,76.6229243 102.578337,75.7949988 103.170487,74.7206213 L109.130016,64.0619486 L109.130016,64.0619486 L122.337623,40.2621083 C123.737807,37.7614616 122.845969,34.6029581 120.342853,33.1974956 Z" id="Path" fill="#132033" fill-rule="nonzero" opacity="0.06"></path>
                    <g id="Path">
                        <use fill="black" fill-opacity="1" filter="url(#filter-8h-es2gp4k-11)" xlink:href="#path-8h-es2gp4k-10"></use>
                        <use fill="url(#linearGradient-8h-es2gp4k-9)" fill-rule="evenodd" xlink:href="#path-8h-es2gp4k-10"></use>
                    </g>
                </g>
                <g id="-1-Copy" transform="translate(953.427786, 529.058478) scale(-1, -1) rotate(51.000000) translate(-953.427786, -529.058478) translate(906.741942, 481.969011)">
                    <path d="M90.9909375,25.463525 L76.0022111,17.0516822 L76.0022111,17.0516822 L64.8824496,10.7054142 C64.6972492,10.5981268 64.5028848,10.5074227 64.3016365,10.4343659 C63.9260545,10.2926188 63.5313796,10.2075643 63.1306422,10.1820107 C62.749434,10.1673564 62.3680174,10.2050961 61.9971198,10.2941686 C61.2829336,10.4882593 60.6352217,10.872765 60.123529,11.4064011 C59.5560327,11.9501452 59.170079,12.6550181 59.0181104,13.4252434 C58.9568461,13.8216848 58.9568461,14.2251529 59.0181104,14.6215943 C59.0438139,14.8336879 59.0876916,15.0431931 59.1492618,15.2478093 L61.5099862,23.5194547 L53.0226198,27.1272005 L49.528373,28.6132928 L46.9709215,29.7068323 L43.3829951,31.1835781 L42.2401047,31.6882886 L41.1346862,32.2864641 C40.4015387,32.671752 39.6914955,33.0992985 39.0081606,33.5669335 C38.3242999,34.0062186 37.6779111,34.5015827 37.0408902,34.9782538 C36.7411157,35.2119161 36.469445,35.4736179 36.1790385,35.7166266 C35.8886319,35.9596354 35.5420176,36.2493767 35.2422431,36.5391179 C34.9424685,36.8288592 34.5115427,37.2681443 34.1555604,37.642004 C33.9775693,37.8289338 33.7902102,38.0158637 33.6122191,38.21214 C33.2000291,38.6701181 32.815943,39.1467892 32.4318569,39.6328068 L32.1414503,39.9879735 C31.7292603,40.53007 31.3358062,41.100206 30.9610881,41.670342 C30.9610881,41.7357674 30.8767765,41.7918464 30.8393047,41.8479254 C30.4458506,42.4741403 30.0711324,43.1097018 29.7245181,43.7172237 L29.7245181,43.7172237 C29.0176762,45.0420292 28.4162758,46.420206 27.925871,47.8390267 L27.925871,47.8390267 C27.8415594,48.072689 27.7478798,48.3156978 27.6729362,48.5493601 C27.4387374,49.2970794 27.2326424,50.0447988 27.0640192,50.7925181 C26.895396,51.5402375 26.7642447,52.3066498 26.6611972,53.0730622 C26.4648257,54.5849987 26.399008,56.1109721 26.4644701,57.6341502 C26.4644701,58.0080099 26.4644701,58.3912161 26.5300458,58.7650758 C26.5956215,59.1389354 26.6143574,59.5127951 26.6611972,59.8866548 L26.7736126,61.0923523 L27.0078115,62.1858918 C27.1533743,62.9118043 27.337876,63.6294004 27.5605208,64.335585 L27.916503,65.3823921 L28.0851262,65.8964491 L28.1788057,66.1581509 L28.2350135,66.2796553 C28.561711,66.9473985 28.8312195,67.6415125 29.0406575,68.3545765 C29.143705,68.7097432 29.2373845,69.0742564 29.3123282,69.448116 C29.4550832,70.2036393 29.5365361,70.9694183 29.555895,71.7380066 C29.555895,72.1772917 29.555895,72.6072303 29.555895,73.0465154 C29.4887456,73.7428961 29.3697564,74.4333269 29.1999127,75.1120902 C29.1999127,75.1868621 29.1999127,75.2709805 29.1530729,75.3457525 L29.1530729,75.3457525 C29.0593934,75.6915727 28.9563459,76.0280464 28.8439305,76.3645201 L28.7034112,76.7664192 C28.6284675,76.9626956 28.5535239,77.1589719 28.4692123,77.3459017 C28.2818532,77.7851869 28.0851262,78.224472 27.8602953,78.6544106 C27.6354644,79.0843492 27.307586,79.5890598 26.9984435,80.0657309 L26.9984435,80.0657309 C26.7081938,80.4841866 26.395472,80.8866736 26.0616481,81.2714284 L25.8087134,81.5611696 C25.5464106,81.8602573 25.265372,82.1499986 24.9749655,82.4397398 L24.665823,82.7388276 C24.2723689,83.0939943 23.8695469,83.4398145 23.438621,83.7575952 C22.6857165,84.2902385 21.8934145,84.7651555 21.0685286,85.178262 L20.7500182,85.3464988 L20.4221398,85.5053892 L19.6633355,85.8231699 L18.1550949,86.4680779 L13.9114117,88.2719508 L12.0940287,89.0477096 L0,94.1789337 L13.0120882,92.1974774 L19.5134482,91.2067493 L21.1434723,91.0011265 L21.9584843,90.8796221 L22.8952797,90.6833457 C23.4462941,90.5825152 23.9906428,90.4483005 24.5253037,90.2814466 L25.0218052,90.1319027 C25.5276747,89.9730123 26.0335443,89.8047755 26.5487817,89.6178457 C27.0640192,89.4309158 27.5792567,89.1785605 28.0851262,88.9355517 L28.5628918,88.6831965 C28.9282421,88.4962666 29.2842243,88.2999903 29.6402066,88.0943675 L30.4552186,87.5896569 C30.7362572,87.4027271 31.0172958,87.2157972 31.2889665,87.0195209 C31.5606371,86.8232446 31.8510437,86.6082752 32.1227144,86.3933059 C32.2351298,86.3091875 32.3475453,86.2250691 32.4505928,86.1316042 C33.4550585,85.3311361 34.3947606,84.4529649 35.260979,83.5052399 L35.260979,83.5052399 C35.7231314,82.9942984 36.1634252,82.4615483 36.5818605,81.9069898 L36.9940505,81.3555468 L37.4156084,80.7386783 C37.7247509,80.2713537 38.0245254,79.8040291 38.3524038,79.308665 L38.3524038,79.308665 C38.6521783,78.7665685 38.933217,78.205779 39.1955197,77.635643 L39.3454069,76.9813886 C39.4859262,76.6262219 39.6358135,76.2804017 39.7669649,75.925235 L40.0761074,74.9905858 C40.1604189,74.7195375 40.2447305,74.4484892 40.3196742,74.1680945 C40.3946178,73.8876997 40.5351371,73.4390681 40.6194487,73.0652084 C40.6194487,72.9156646 40.6850244,72.7754672 40.7131282,72.6352698 C41.1950803,70.470594 41.3872364,68.2517187 41.2845734,66.0366465 L41.2845734,66.0366465 C41.2845734,65.5412824 41.2377337,65.0459183 41.1815259,64.5412078 C41.1253182,64.0364972 41.0597425,63.4009358 40.956695,62.8214533 L40.956695,62.5597515 L40.956695,62.1204664 L40.956695,61.5783698 C40.9379938,61.4012766 40.9379938,61.222713 40.956695,61.0456198 C40.956695,60.8680364 40.956695,60.6904531 40.956695,60.5222162 L40.956695,59.9988127 L41.0597425,59.4847556 C41.0995205,59.1461099 41.1684739,58.8115139 41.2658375,58.484681 L41.3501491,58.1949398 C41.4694975,57.7798567 41.6102033,57.3711847 41.771707,56.9705493 C42.0706751,56.2447118 42.4509305,55.5549223 42.9052295,54.9143211 C44.2324064,52.9447845 46.2287957,51.5206364 48.5260019,50.904676 C48.6292986,50.8688432 48.7360387,50.8437855 48.8445123,50.8299041 C48.8881196,50.8255315 48.9320564,50.8255315 48.9756637,50.8299041 C49.0974471,50.8299041 49.2098625,50.8299041 49.322278,50.7738252 L49.7063641,50.6990532 L50.1091861,50.6990532 L50.4745363,50.6990532 L50.5963197,50.6990532 L50.736839,50.6990532 L51.149029,50.6336278 L52.7696851,50.390619 L59.3272529,49.3998908 L68.4516401,48.01661 L70.7374209,56.0359001 C70.9530886,56.8185989 71.4083184,57.5145831 72.0395665,58.0267029 C72.7738872,58.6152402 73.6928164,58.9263646 74.6344898,58.9052731 L74.6906975,58.9052731 C75.0075814,58.8974781 75.3222627,58.850384 75.6274929,58.7650758 L75.9647392,58.6529179 C76.8348969,58.3260116 77.5592301,57.6994734 78.0069532,56.8864309 L82.5129391,48.8204083 L82.5129391,48.8204083 L92.4991781,30.8097184 C93.5578537,28.9173371 92.8835374,26.5271182 90.9909375,25.463525 Z" id="Path" fill="#132033" fill-rule="nonzero" opacity="0.06"></path>
                    <g id="Path">
                        <use fill="black" fill-opacity="1" filter="url(#filter-8h-es2gp4k-14)" xlink:href="#path-8h-es2gp4k-13"></use>
                        <use fill="url(#linearGradient-8h-es2gp4k-12)" fill-rule="evenodd" xlink:href="#path-8h-es2gp4k-13"></use>
                    </g>
                </g>
                <g id="-1-Copy-2" transform="translate(986.680642, 373.523733) scale(-1, -1) rotate(10.000000) translate(-986.680642, -373.523733) translate(939.994798, 326.434266)">
                    <path d="M90.9909375,25.463525 L76.0022111,17.0516822 L76.0022111,17.0516822 L64.8824496,10.7054142 C64.6972492,10.5981268 64.5028848,10.5074227 64.3016365,10.4343659 C63.9260545,10.2926188 63.5313796,10.2075643 63.1306422,10.1820107 C62.749434,10.1673564 62.3680174,10.2050961 61.9971198,10.2941686 C61.2829336,10.4882593 60.6352217,10.872765 60.123529,11.4064011 C59.5560327,11.9501452 59.170079,12.6550181 59.0181104,13.4252434 C58.9568461,13.8216848 58.9568461,14.2251529 59.0181104,14.6215943 C59.0438139,14.8336879 59.0876916,15.0431931 59.1492618,15.2478093 L61.5099862,23.5194547 L53.0226198,27.1272005 L49.528373,28.6132928 L46.9709215,29.7068323 L43.3829951,31.1835781 L42.2401047,31.6882886 L41.1346862,32.2864641 C40.4015387,32.671752 39.6914955,33.0992985 39.0081606,33.5669335 C38.3242999,34.0062186 37.6779111,34.5015827 37.0408902,34.9782538 C36.7411157,35.2119161 36.469445,35.4736179 36.1790385,35.7166266 C35.8886319,35.9596354 35.5420176,36.2493767 35.2422431,36.5391179 C34.9424685,36.8288592 34.5115427,37.2681443 34.1555604,37.642004 C33.9775693,37.8289338 33.7902102,38.0158637 33.6122191,38.21214 C33.2000291,38.6701181 32.815943,39.1467892 32.4318569,39.6328068 L32.1414503,39.9879735 C31.7292603,40.53007 31.3358062,41.100206 30.9610881,41.670342 C30.9610881,41.7357674 30.8767765,41.7918464 30.8393047,41.8479254 C30.4458506,42.4741403 30.0711324,43.1097018 29.7245181,43.7172237 L29.7245181,43.7172237 C29.0176762,45.0420292 28.4162758,46.420206 27.925871,47.8390267 L27.925871,47.8390267 C27.8415594,48.072689 27.7478798,48.3156978 27.6729362,48.5493601 C27.4387374,49.2970794 27.2326424,50.0447988 27.0640192,50.7925181 C26.895396,51.5402375 26.7642447,52.3066498 26.6611972,53.0730622 C26.4648257,54.5849987 26.399008,56.1109721 26.4644701,57.6341502 C26.4644701,58.0080099 26.4644701,58.3912161 26.5300458,58.7650758 C26.5956215,59.1389354 26.6143574,59.5127951 26.6611972,59.8866548 L26.7736126,61.0923523 L27.0078115,62.1858918 C27.1533743,62.9118043 27.337876,63.6294004 27.5605208,64.335585 L27.916503,65.3823921 L28.0851262,65.8964491 L28.1788057,66.1581509 L28.2350135,66.2796553 C28.561711,66.9473985 28.8312195,67.6415125 29.0406575,68.3545765 C29.143705,68.7097432 29.2373845,69.0742564 29.3123282,69.448116 C29.4550832,70.2036393 29.5365361,70.9694183 29.555895,71.7380066 C29.555895,72.1772917 29.555895,72.6072303 29.555895,73.0465154 C29.4887456,73.7428961 29.3697564,74.4333269 29.1999127,75.1120902 C29.1999127,75.1868621 29.1999127,75.2709805 29.1530729,75.3457525 L29.1530729,75.3457525 C29.0593934,75.6915727 28.9563459,76.0280464 28.8439305,76.3645201 L28.7034112,76.7664192 C28.6284675,76.9626956 28.5535239,77.1589719 28.4692123,77.3459017 C28.2818532,77.7851869 28.0851262,78.224472 27.8602953,78.6544106 C27.6354644,79.0843492 27.307586,79.5890598 26.9984435,80.0657309 L26.9984435,80.0657309 C26.7081938,80.4841866 26.395472,80.8866736 26.0616481,81.2714284 L25.8087134,81.5611696 C25.5464106,81.8602573 25.265372,82.1499986 24.9749655,82.4397398 L24.665823,82.7388276 C24.2723689,83.0939943 23.8695469,83.4398145 23.438621,83.7575952 C22.6857165,84.2902385 21.8934145,84.7651555 21.0685286,85.178262 L20.7500182,85.3464988 L20.4221398,85.5053892 L19.6633355,85.8231699 L18.1550949,86.4680779 L13.9114117,88.2719508 L12.0940287,89.0477096 L0,94.1789337 L13.0120882,92.1974774 L19.5134482,91.2067493 L21.1434723,91.0011265 L21.9584843,90.8796221 L22.8952797,90.6833457 C23.4462941,90.5825152 23.9906428,90.4483005 24.5253037,90.2814466 L25.0218052,90.1319027 C25.5276747,89.9730123 26.0335443,89.8047755 26.5487817,89.6178457 C27.0640192,89.4309158 27.5792567,89.1785605 28.0851262,88.9355517 L28.5628918,88.6831965 C28.9282421,88.4962666 29.2842243,88.2999903 29.6402066,88.0943675 L30.4552186,87.5896569 C30.7362572,87.4027271 31.0172958,87.2157972 31.2889665,87.0195209 C31.5606371,86.8232446 31.8510437,86.6082752 32.1227144,86.3933059 C32.2351298,86.3091875 32.3475453,86.2250691 32.4505928,86.1316042 C33.4550585,85.3311361 34.3947606,84.4529649 35.260979,83.5052399 L35.260979,83.5052399 C35.7231314,82.9942984 36.1634252,82.4615483 36.5818605,81.9069898 L36.9940505,81.3555468 L37.4156084,80.7386783 C37.7247509,80.2713537 38.0245254,79.8040291 38.3524038,79.308665 L38.3524038,79.308665 C38.6521783,78.7665685 38.933217,78.205779 39.1955197,77.635643 L39.3454069,76.9813886 C39.4859262,76.6262219 39.6358135,76.2804017 39.7669649,75.925235 L40.0761074,74.9905858 C40.1604189,74.7195375 40.2447305,74.4484892 40.3196742,74.1680945 C40.3946178,73.8876997 40.5351371,73.4390681 40.6194487,73.0652084 C40.6194487,72.9156646 40.6850244,72.7754672 40.7131282,72.6352698 C41.1950803,70.470594 41.3872364,68.2517187 41.2845734,66.0366465 L41.2845734,66.0366465 C41.2845734,65.5412824 41.2377337,65.0459183 41.1815259,64.5412078 C41.1253182,64.0364972 41.0597425,63.4009358 40.956695,62.8214533 L40.956695,62.5597515 L40.956695,62.1204664 L40.956695,61.5783698 C40.9379938,61.4012766 40.9379938,61.222713 40.956695,61.0456198 C40.956695,60.8680364 40.956695,60.6904531 40.956695,60.5222162 L40.956695,59.9988127 L41.0597425,59.4847556 C41.0995205,59.1461099 41.1684739,58.8115139 41.2658375,58.484681 L41.3501491,58.1949398 C41.4694975,57.7798567 41.6102033,57.3711847 41.771707,56.9705493 C42.0706751,56.2447118 42.4509305,55.5549223 42.9052295,54.9143211 C44.2324064,52.9447845 46.2287957,51.5206364 48.5260019,50.904676 C48.6292986,50.8688432 48.7360387,50.8437855 48.8445123,50.8299041 C48.8881196,50.8255315 48.9320564,50.8255315 48.9756637,50.8299041 C49.0974471,50.8299041 49.2098625,50.8299041 49.322278,50.7738252 L49.7063641,50.6990532 L50.1091861,50.6990532 L50.4745363,50.6990532 L50.5963197,50.6990532 L50.736839,50.6990532 L51.149029,50.6336278 L52.7696851,50.390619 L59.3272529,49.3998908 L68.4516401,48.01661 L70.7374209,56.0359001 C70.9530886,56.8185989 71.4083184,57.5145831 72.0395665,58.0267029 C72.7738872,58.6152402 73.6928164,58.9263646 74.6344898,58.9052731 L74.6906975,58.9052731 C75.0075814,58.8974781 75.3222627,58.850384 75.6274929,58.7650758 L75.9647392,58.6529179 C76.8348969,58.3260116 77.5592301,57.6994734 78.0069532,56.8864309 L82.5129391,48.8204083 L82.5129391,48.8204083 L92.4991781,30.8097184 C93.5578537,28.9173371 92.8835374,26.5271182 90.9909375,25.463525 Z" id="Path" fill="#132033" fill-rule="nonzero" opacity="0.06"></path>
                    <g id="Path">
                        <use fill="black" fill-opacity="1" filter="url(#filter-8h-es2gp4k-16)" xlink:href="#path-8h-es2gp4k-15"></use>
                        <use fill="url(#linearGradient-8h-es2gp4k-12)" fill-rule="evenodd" xlink:href="#path-8h-es2gp4k-15"></use>
                    </g>
                </g>
                <g id="-1-Copy-3" transform="translate(466.680642, 313.523733) scale(-1, -1) rotate(-119.000000) translate(-466.680642, -313.523733) translate(419.994798, 266.434266)">
                    <path d="M90.9909375,25.463525 L76.0022111,17.0516822 L76.0022111,17.0516822 L64.8824496,10.7054142 C64.6972492,10.5981268 64.5028848,10.5074227 64.3016365,10.4343659 C63.9260545,10.2926188 63.5313796,10.2075643 63.1306422,10.1820107 C62.749434,10.1673564 62.3680174,10.2050961 61.9971198,10.2941686 C61.2829336,10.4882593 60.6352217,10.872765 60.123529,11.4064011 C59.5560327,11.9501452 59.170079,12.6550181 59.0181104,13.4252434 C58.9568461,13.8216848 58.9568461,14.2251529 59.0181104,14.6215943 C59.0438139,14.8336879 59.0876916,15.0431931 59.1492618,15.2478093 L61.5099862,23.5194547 L53.0226198,27.1272005 L49.528373,28.6132928 L46.9709215,29.7068323 L43.3829951,31.1835781 L42.2401047,31.6882886 L41.1346862,32.2864641 C40.4015387,32.671752 39.6914955,33.0992985 39.0081606,33.5669335 C38.3242999,34.0062186 37.6779111,34.5015827 37.0408902,34.9782538 C36.7411157,35.2119161 36.469445,35.4736179 36.1790385,35.7166266 C35.8886319,35.9596354 35.5420176,36.2493767 35.2422431,36.5391179 C34.9424685,36.8288592 34.5115427,37.2681443 34.1555604,37.642004 C33.9775693,37.8289338 33.7902102,38.0158637 33.6122191,38.21214 C33.2000291,38.6701181 32.815943,39.1467892 32.4318569,39.6328068 L32.1414503,39.9879735 C31.7292603,40.53007 31.3358062,41.100206 30.9610881,41.670342 C30.9610881,41.7357674 30.8767765,41.7918464 30.8393047,41.8479254 C30.4458506,42.4741403 30.0711324,43.1097018 29.7245181,43.7172237 L29.7245181,43.7172237 C29.0176762,45.0420292 28.4162758,46.420206 27.925871,47.8390267 L27.925871,47.8390267 C27.8415594,48.072689 27.7478798,48.3156978 27.6729362,48.5493601 C27.4387374,49.2970794 27.2326424,50.0447988 27.0640192,50.7925181 C26.895396,51.5402375 26.7642447,52.3066498 26.6611972,53.0730622 C26.4648257,54.5849987 26.399008,56.1109721 26.4644701,57.6341502 C26.4644701,58.0080099 26.4644701,58.3912161 26.5300458,58.7650758 C26.5956215,59.1389354 26.6143574,59.5127951 26.6611972,59.8866548 L26.7736126,61.0923523 L27.0078115,62.1858918 C27.1533743,62.9118043 27.337876,63.6294004 27.5605208,64.335585 L27.916503,65.3823921 L28.0851262,65.8964491 L28.1788057,66.1581509 L28.2350135,66.2796553 C28.561711,66.9473985 28.8312195,67.6415125 29.0406575,68.3545765 C29.143705,68.7097432 29.2373845,69.0742564 29.3123282,69.448116 C29.4550832,70.2036393 29.5365361,70.9694183 29.555895,71.7380066 C29.555895,72.1772917 29.555895,72.6072303 29.555895,73.0465154 C29.4887456,73.7428961 29.3697564,74.4333269 29.1999127,75.1120902 C29.1999127,75.1868621 29.1999127,75.2709805 29.1530729,75.3457525 L29.1530729,75.3457525 C29.0593934,75.6915727 28.9563459,76.0280464 28.8439305,76.3645201 L28.7034112,76.7664192 C28.6284675,76.9626956 28.5535239,77.1589719 28.4692123,77.3459017 C28.2818532,77.7851869 28.0851262,78.224472 27.8602953,78.6544106 C27.6354644,79.0843492 27.307586,79.5890598 26.9984435,80.0657309 L26.9984435,80.0657309 C26.7081938,80.4841866 26.395472,80.8866736 26.0616481,81.2714284 L25.8087134,81.5611696 C25.5464106,81.8602573 25.265372,82.1499986 24.9749655,82.4397398 L24.665823,82.7388276 C24.2723689,83.0939943 23.8695469,83.4398145 23.438621,83.7575952 C22.6857165,84.2902385 21.8934145,84.7651555 21.0685286,85.178262 L20.7500182,85.3464988 L20.4221398,85.5053892 L19.6633355,85.8231699 L18.1550949,86.4680779 L13.9114117,88.2719508 L12.0940287,89.0477096 L0,94.1789337 L13.0120882,92.1974774 L19.5134482,91.2067493 L21.1434723,91.0011265 L21.9584843,90.8796221 L22.8952797,90.6833457 C23.4462941,90.5825152 23.9906428,90.4483005 24.5253037,90.2814466 L25.0218052,90.1319027 C25.5276747,89.9730123 26.0335443,89.8047755 26.5487817,89.6178457 C27.0640192,89.4309158 27.5792567,89.1785605 28.0851262,88.9355517 L28.5628918,88.6831965 C28.9282421,88.4962666 29.2842243,88.2999903 29.6402066,88.0943675 L30.4552186,87.5896569 C30.7362572,87.4027271 31.0172958,87.2157972 31.2889665,87.0195209 C31.5606371,86.8232446 31.8510437,86.6082752 32.1227144,86.3933059 C32.2351298,86.3091875 32.3475453,86.2250691 32.4505928,86.1316042 C33.4550585,85.3311361 34.3947606,84.4529649 35.260979,83.5052399 L35.260979,83.5052399 C35.7231314,82.9942984 36.1634252,82.4615483 36.5818605,81.9069898 L36.9940505,81.3555468 L37.4156084,80.7386783 C37.7247509,80.2713537 38.0245254,79.8040291 38.3524038,79.308665 L38.3524038,79.308665 C38.6521783,78.7665685 38.933217,78.205779 39.1955197,77.635643 L39.3454069,76.9813886 C39.4859262,76.6262219 39.6358135,76.2804017 39.7669649,75.925235 L40.0761074,74.9905858 C40.1604189,74.7195375 40.2447305,74.4484892 40.3196742,74.1680945 C40.3946178,73.8876997 40.5351371,73.4390681 40.6194487,73.0652084 C40.6194487,72.9156646 40.6850244,72.7754672 40.7131282,72.6352698 C41.1950803,70.470594 41.3872364,68.2517187 41.2845734,66.0366465 L41.2845734,66.0366465 C41.2845734,65.5412824 41.2377337,65.0459183 41.1815259,64.5412078 C41.1253182,64.0364972 41.0597425,63.4009358 40.956695,62.8214533 L40.956695,62.5597515 L40.956695,62.1204664 L40.956695,61.5783698 C40.9379938,61.4012766 40.9379938,61.222713 40.956695,61.0456198 C40.956695,60.8680364 40.956695,60.6904531 40.956695,60.5222162 L40.956695,59.9988127 L41.0597425,59.4847556 C41.0995205,59.1461099 41.1684739,58.8115139 41.2658375,58.484681 L41.3501491,58.1949398 C41.4694975,57.7798567 41.6102033,57.3711847 41.771707,56.9705493 C42.0706751,56.2447118 42.4509305,55.5549223 42.9052295,54.9143211 C44.2324064,52.9447845 46.2287957,51.5206364 48.5260019,50.904676 C48.6292986,50.8688432 48.7360387,50.8437855 48.8445123,50.8299041 C48.8881196,50.8255315 48.9320564,50.8255315 48.9756637,50.8299041 C49.0974471,50.8299041 49.2098625,50.8299041 49.322278,50.7738252 L49.7063641,50.6990532 L50.1091861,50.6990532 L50.4745363,50.6990532 L50.5963197,50.6990532 L50.736839,50.6990532 L51.149029,50.6336278 L52.7696851,50.390619 L59.3272529,49.3998908 L68.4516401,48.01661 L70.7374209,56.0359001 C70.9530886,56.8185989 71.4083184,57.5145831 72.0395665,58.0267029 C72.7738872,58.6152402 73.6928164,58.9263646 74.6344898,58.9052731 L74.6906975,58.9052731 C75.0075814,58.8974781 75.3222627,58.850384 75.6274929,58.7650758 L75.9647392,58.6529179 C76.8348969,58.3260116 77.5592301,57.6994734 78.0069532,56.8864309 L82.5129391,48.8204083 L82.5129391,48.8204083 L92.4991781,30.8097184 C93.5578537,28.9173371 92.8835374,26.5271182 90.9909375,25.463525 Z" id="Path" fill="#132033" fill-rule="nonzero" opacity="0.06"></path>
                    <g id="Path">
                        <use fill="black" fill-opacity="1" filter="url(#filter-8h-es2gp4k-18)" xlink:href="#path-8h-es2gp4k-17"></use>
                        <use fill="url(#linearGradient-8h-es2gp4k-12)" fill-rule="evenodd" xlink:href="#path-8h-es2gp4k-17"></use>
                    </g>
                </g>
                <g id="-1-Copy-4" transform="translate(477.543577, 438.072525) scale(-1, 1) rotate(-149.000000) translate(-477.543577, -438.072525) translate(446.616838, 407.314920)">
                    <path d="M59.6822278,16.5229773 L49.8509126,11.0152231 L49.8509126,11.0152231 L42.5573057,6.85992855 C42.4358301,6.78968086 42.3083438,6.73029127 42.1763422,6.68245647 C41.9299927,6.58964584 41.67112,6.53395542 41.4082707,6.51722385 C41.1582309,6.50762877 40.9080544,6.53233934 40.6647775,6.59066057 C40.1963328,6.71774382 39.7714895,6.96950347 39.4358631,7.31890807 C39.0636343,7.67493099 38.8104819,8.13645488 38.7108036,8.64076907 C38.6706195,8.90034383 38.6706195,9.16451935 38.7108036,9.42409411 C38.7276629,9.5629649 38.7564429,9.70014089 38.7968276,9.83411581 L40.3452598,15.2500741 L34.7782775,17.6122887 L32.4863522,18.5853252 L30.808884,19.3013333 L28.4555129,20.2682501 L27.7058751,20.5987154 L26.9808157,20.9903779 C26.499934,21.2426497 26.0342067,21.5225909 25.5859978,21.8287805 C25.1374441,22.1164076 24.7134686,22.4407531 24.2956377,22.7528592 C24.0990114,22.9058524 23.9208188,23.0772047 23.7303371,23.2363176 C23.5398553,23.3954305 23.3125062,23.5851421 23.1158799,23.7748536 C22.9192536,23.9645651 22.6366032,24.2521923 22.4031095,24.4969814 C22.2863626,24.6193759 22.1634712,24.7417705 22.0467243,24.8702847 C21.7763632,25.1701513 21.5244357,25.4822574 21.2725083,25.8004832 L21.0820265,26.0330328 C20.8116654,26.387977 20.5535933,26.7612803 20.3078105,27.1345837 C20.3078105,27.1774217 20.2525093,27.2141401 20.227931,27.2508585 C19.969859,27.6608802 19.7240761,28.0770216 19.496727,28.4748038 L19.496727,28.4748038 C19.0330994,29.342236 18.6386325,30.2446136 18.3169691,31.1736034 L18.3169691,31.1736034 C18.261668,31.3265966 18.2002223,31.4857095 18.1510657,31.6387026 C17.9974514,32.1282808 17.8622708,32.6178589 17.7516685,33.1074371 C17.6410662,33.5970152 17.5550422,34.0988328 17.4874519,34.6006504 C17.3586491,35.5906089 17.3154783,36.5897581 17.3584159,37.5870771 C17.3584159,37.8318662 17.3584159,38.082775 17.4014279,38.3275641 C17.4444399,38.5723532 17.4567291,38.8171422 17.4874519,39.0619313 L17.5611868,39.8513761 L17.7148011,40.5673841 C17.8102778,41.0426839 17.931295,41.5125385 18.0773308,41.9749213 L18.3108246,42.6603307 L18.4214269,42.9969157 L18.4828726,43.168268 L18.51974,43.2478245 C18.7340255,43.6850373 18.9107999,44.1395167 19.0481732,44.6064039 C19.1157635,44.8389535 19.1772092,45.0776228 19.2263658,45.3224119 C19.3200008,45.8170997 19.3734269,46.3185026 19.3861247,46.821745 C19.3861247,47.1093721 19.3861247,47.3908796 19.3861247,47.6785067 C19.3420805,48.1344703 19.2640338,48.586538 19.1526309,49.0309664 C19.1526309,49.0799242 19.1526309,49.1350017 19.1219081,49.1839595 L19.1219081,49.1839595 C19.0604623,49.4103894 18.9928721,49.6306996 18.9191372,49.8510098 L18.8269686,50.114158 C18.777812,50.2426723 18.7286555,50.3711866 18.6733543,50.4935811 C18.5504629,50.7812083 18.4214269,51.0688354 18.2739571,51.3503429 C18.1264874,51.6318503 17.9114274,51.9623155 17.7086565,52.2744216 L17.7086565,52.2744216 C17.5182777,52.5484105 17.313159,52.8119436 17.0941993,53.0638664 L16.9282959,53.2535779 C16.7562478,53.4494092 16.5719107,53.6391207 16.381429,53.8288322 L16.1786581,54.0246635 C15.9205861,54.2572131 15.6563695,54.483643 15.3737191,54.6917137 C14.8798786,55.0404682 14.3601966,55.3514258 13.8191424,55.6219122 L13.610227,55.7320673 L13.395167,55.8361026 L12.8974566,56.0441734 L11.9081805,56.4664345 L9.12468942,57.6475418 L7.93264245,58.1554791 L1.8189894e-12,61.5152092 L8.53481051,60.2178271 L12.7991435,59.569136 L13.868299,59.434502 L14.4028768,59.3549456 L15.017334,59.2264313 C15.378752,59.1604114 15.735798,59.0725326 16.0864895,58.9632831 L16.4121518,58.8653674 C16.7439587,58.7613321 17.0757656,58.651177 17.413717,58.5287825 C17.7516685,58.4063879 18.08962,58.2411553 18.4214269,58.0820424 L18.7348,57.9168098 C18.9744383,57.7944152 19.2079321,57.665901 19.4414258,57.531267 L19.9760036,57.2008017 C20.1603407,57.0784072 20.3446779,56.9560127 20.5228705,56.8274984 C20.7010631,56.6989841 20.8915448,56.5582304 21.0697374,56.4174767 C21.1434723,56.3623992 21.2172071,56.3073216 21.2847974,56.2461243 C21.9436405,55.7220084 22.5600043,55.1470153 23.128169,54.5264811 L23.128169,54.5264811 C23.4313012,54.191936 23.7200961,53.8431116 23.9945537,53.4800078 L24.2649148,53.1189439 L24.5414206,52.7150419 C24.7441914,52.4090556 24.9408177,52.1030693 25.1558778,51.7787237 L25.1558778,51.7787237 C25.3525041,51.4237796 25.5368412,51.056596 25.7088892,50.6832926 L25.8072024,50.2549117 C25.899371,50.0223621 25.9976841,49.7959322 26.0837081,49.5633826 L26.286479,48.9514099 C26.3417802,48.7739378 26.3970813,48.5964658 26.4462379,48.412874 C26.4953945,48.2292822 26.587563,47.9355353 26.6428642,47.6907462 C26.6428642,47.5928306 26.6858762,47.5010347 26.7043099,47.4092388 C27.020429,45.9918915 27.1464669,44.5390565 27.0791288,43.0887116 L27.0791288,43.0887116 C27.0791288,42.7643661 27.0484059,42.4400205 27.0115385,42.1095553 C26.9746711,41.77909 26.9316591,41.3629486 26.8640688,40.9835255 L26.8640688,40.8121732 L26.8640688,40.524546 L26.8640688,40.1696019 C26.8518024,40.053648 26.8518024,39.9367314 26.8640688,39.8207774 C26.8640688,39.7045026 26.8640688,39.5882278 26.8640688,39.4780727 L26.8640688,39.135368 L26.9316591,38.7987831 C26.95775,38.5770507 27.0029775,38.35797 27.0668397,38.1439723 L27.1221408,37.9542608 C27.2004231,37.6824802 27.292714,37.4148973 27.3986465,37.1525765 C27.5947439,36.6773258 27.8441587,36.2256779 28.1421398,35.8062366 C29.0126537,34.5166591 30.3221133,33.5841812 31.828883,33.1808738 C31.8966367,33.1574118 31.966649,33.141005 32.0377984,33.131916 C32.066401,33.1290529 32.0952198,33.1290529 32.1238224,33.131916 C32.2037019,33.131916 32.2774367,33.131916 32.3511716,33.0951976 L32.603099,33.0462398 L32.8673156,33.0462398 L33.1069539,33.0462398 L33.1868334,33.0462398 L33.279002,33.0462398 L33.5493631,33.0034017 L34.6123741,32.8442888 L38.9135745,32.1955978 L44.8983876,31.2898782 L46.3976632,36.5406038 C46.5391226,37.0530852 46.8377142,37.5087892 47.2517587,37.8441057 C47.7334099,38.2294575 48.3361484,38.4331699 48.9538051,38.41936 L48.9906726,38.41936 C49.1985211,38.4142561 49.404925,38.3834207 49.6051298,38.3275641 L49.8263343,38.2541274 C50.3970829,38.0400816 50.8721832,37.6298482 51.165851,37.097499 L54.1213902,31.8161747 L54.1213902,31.8161747 L60.6715039,20.023461 C61.365904,18.7844019 60.9236106,17.2193776 59.6822278,16.5229773 Z" id="Path" fill="#132033" fill-rule="nonzero" opacity="0.06"></path>
                    <g id="Path">
                        <use fill="black" fill-opacity="1" filter="url(#filter-8h-es2gp4k-21)" xlink:href="#path-8h-es2gp4k-20"></use>
                        <use fill="url(#linearGradient-8h-es2gp4k-19)" fill-rule="evenodd" xlink:href="#path-8h-es2gp4k-20"></use>
                    </g>
                </g>
                <g id="Group-22" transform="translate(973.000000, 198.000000)">
                    <g id="Rectangle">
                        <use fill="black" fill-opacity="1" filter="url(#filter-8h-es2gp4k-23)" xlink:href="#path-8h-es2gp4k-22"></use>
                        <use fill="#FFFFFF" fill-rule="evenodd" xlink:href="#path-8h-es2gp4k-22"></use>
                    </g>
                    <g id="binance_coin" transform="translate(16.000000, 16.000000)">
                        <rect id="frame" x="0" y="0" width="40" height="40"></rect>
                        <path d="M20,0 C31.045695,-2.02906125e-15 40,8.954305 40,20 C40,31.045695 31.045695,40 20,40 C8.954305,40 1.3527075e-15,31.045695 0,20 C-1.3527075e-15,8.954305 8.954305,2.02906125e-15 20,0 Z" id="shape" fill="#F3BA2F" fill-rule="nonzero"></path>
                        <path d="M25.8289305,22.390906 L29.2208158,25.7790002 L29.2191572,25.7808958 L20.000053,35 L10.7790533,25.7792372 L14.174019,22.3937494 L20.000053,28.2195465 L25.8289305,22.390906 Z M20.000053,16.5582374 L23.4400385,19.9982229 L23.4386168,19.9982229 L23.4416971,19.9998815 L23.4400385,20.0017771 L20.000053,23.4417626 L16.5584089,19.9998815 L16.5631479,19.9951426 L17.1657021,19.3925883 L17.4576199,19.1004336 L20.000053,16.5582374 Z M31.6105039,16.6111352 L35.0004355,20.0010668 L31.6103363,23.3911659 L28.2204048,20.0012343 L31.6105039,16.6111352 Z M8.39009914,16.609538 L11.7800307,19.9994696 L8.38993159,23.3895687 L5,19.9996371 L8.39009914,16.609538 Z M20.000053,5 L29.2191572,14.2193411 L25.8291674,17.6093309 L20.000053,11.7804535 L14.174019,17.6062506 L10.7840291,14.2162608 L20.000053,5 Z" id="shape" fill="#FFFFFF" fill-rule="nonzero"></path>
                    </g>
                </g>
                <g id="-1-Copy-4" transform="translate(925.268110, 251.443271) scale(1, -1) rotate(-121.000000) translate(-925.268110, -251.443271) translate(894.341371, 220.685666)">
                    <path d="M59.6822278,16.5229773 L49.8509126,11.0152231 L49.8509126,11.0152231 L42.5573057,6.85992855 C42.4358301,6.78968086 42.3083438,6.73029127 42.1763422,6.68245647 C41.9299927,6.58964584 41.67112,6.53395542 41.4082707,6.51722385 C41.1582309,6.50762877 40.9080544,6.53233934 40.6647775,6.59066057 C40.1963328,6.71774382 39.7714895,6.96950347 39.4358631,7.31890807 C39.0636343,7.67493099 38.8104819,8.13645488 38.7108036,8.64076907 C38.6706195,8.90034383 38.6706195,9.16451935 38.7108036,9.42409411 C38.7276629,9.5629649 38.7564429,9.70014089 38.7968276,9.83411581 L40.3452598,15.2500741 L34.7782775,17.6122887 L32.4863522,18.5853252 L30.808884,19.3013333 L28.4555129,20.2682501 L27.7058751,20.5987154 L26.9808157,20.9903779 C26.499934,21.2426497 26.0342067,21.5225909 25.5859978,21.8287805 C25.1374441,22.1164076 24.7134686,22.4407531 24.2956377,22.7528592 C24.0990114,22.9058524 23.9208188,23.0772047 23.7303371,23.2363176 C23.5398553,23.3954305 23.3125062,23.5851421 23.1158799,23.7748536 C22.9192536,23.9645651 22.6366032,24.2521923 22.4031095,24.4969814 C22.2863626,24.6193759 22.1634712,24.7417705 22.0467243,24.8702847 C21.7763632,25.1701513 21.5244357,25.4822574 21.2725083,25.8004832 L21.0820265,26.0330328 C20.8116654,26.387977 20.5535933,26.7612803 20.3078105,27.1345837 C20.3078105,27.1774217 20.2525093,27.2141401 20.227931,27.2508585 C19.969859,27.6608802 19.7240761,28.0770216 19.496727,28.4748038 L19.496727,28.4748038 C19.0330994,29.342236 18.6386325,30.2446136 18.3169691,31.1736034 L18.3169691,31.1736034 C18.261668,31.3265966 18.2002223,31.4857095 18.1510657,31.6387026 C17.9974514,32.1282808 17.8622708,32.6178589 17.7516685,33.1074371 C17.6410662,33.5970152 17.5550422,34.0988328 17.4874519,34.6006504 C17.3586491,35.5906089 17.3154783,36.5897581 17.3584159,37.5870771 C17.3584159,37.8318662 17.3584159,38.082775 17.4014279,38.3275641 C17.4444399,38.5723532 17.4567291,38.8171422 17.4874519,39.0619313 L17.5611868,39.8513761 L17.7148011,40.5673841 C17.8102778,41.0426839 17.931295,41.5125385 18.0773308,41.9749213 L18.3108246,42.6603307 L18.4214269,42.9969157 L18.4828726,43.168268 L18.51974,43.2478245 C18.7340255,43.6850373 18.9107999,44.1395167 19.0481732,44.6064039 C19.1157635,44.8389535 19.1772092,45.0776228 19.2263658,45.3224119 C19.3200008,45.8170997 19.3734269,46.3185026 19.3861247,46.821745 C19.3861247,47.1093721 19.3861247,47.3908796 19.3861247,47.6785067 C19.3420805,48.1344703 19.2640338,48.586538 19.1526309,49.0309664 C19.1526309,49.0799242 19.1526309,49.1350017 19.1219081,49.1839595 L19.1219081,49.1839595 C19.0604623,49.4103894 18.9928721,49.6306996 18.9191372,49.8510098 L18.8269686,50.114158 C18.777812,50.2426723 18.7286555,50.3711866 18.6733543,50.4935811 C18.5504629,50.7812083 18.4214269,51.0688354 18.2739571,51.3503429 C18.1264874,51.6318503 17.9114274,51.9623155 17.7086565,52.2744216 L17.7086565,52.2744216 C17.5182777,52.5484105 17.313159,52.8119436 17.0941993,53.0638664 L16.9282959,53.2535779 C16.7562478,53.4494092 16.5719107,53.6391207 16.381429,53.8288322 L16.1786581,54.0246635 C15.9205861,54.2572131 15.6563695,54.483643 15.3737191,54.6917137 C14.8798786,55.0404682 14.3601966,55.3514258 13.8191424,55.6219122 L13.610227,55.7320673 L13.395167,55.8361026 L12.8974566,56.0441734 L11.9081805,56.4664345 L9.12468942,57.6475418 L7.93264245,58.1554791 L1.8189894e-12,61.5152092 L8.53481051,60.2178271 L12.7991435,59.569136 L13.868299,59.434502 L14.4028768,59.3549456 L15.017334,59.2264313 C15.378752,59.1604114 15.735798,59.0725326 16.0864895,58.9632831 L16.4121518,58.8653674 C16.7439587,58.7613321 17.0757656,58.651177 17.413717,58.5287825 C17.7516685,58.4063879 18.08962,58.2411553 18.4214269,58.0820424 L18.7348,57.9168098 C18.9744383,57.7944152 19.2079321,57.665901 19.4414258,57.531267 L19.9760036,57.2008017 C20.1603407,57.0784072 20.3446779,56.9560127 20.5228705,56.8274984 C20.7010631,56.6989841 20.8915448,56.5582304 21.0697374,56.4174767 C21.1434723,56.3623992 21.2172071,56.3073216 21.2847974,56.2461243 C21.9436405,55.7220084 22.5600043,55.1470153 23.128169,54.5264811 L23.128169,54.5264811 C23.4313012,54.191936 23.7200961,53.8431116 23.9945537,53.4800078 L24.2649148,53.1189439 L24.5414206,52.7150419 C24.7441914,52.4090556 24.9408177,52.1030693 25.1558778,51.7787237 L25.1558778,51.7787237 C25.3525041,51.4237796 25.5368412,51.056596 25.7088892,50.6832926 L25.8072024,50.2549117 C25.899371,50.0223621 25.9976841,49.7959322 26.0837081,49.5633826 L26.286479,48.9514099 C26.3417802,48.7739378 26.3970813,48.5964658 26.4462379,48.412874 C26.4953945,48.2292822 26.587563,47.9355353 26.6428642,47.6907462 C26.6428642,47.5928306 26.6858762,47.5010347 26.7043099,47.4092388 C27.020429,45.9918915 27.1464669,44.5390565 27.0791288,43.0887116 L27.0791288,43.0887116 C27.0791288,42.7643661 27.0484059,42.4400205 27.0115385,42.1095553 C26.9746711,41.77909 26.9316591,41.3629486 26.8640688,40.9835255 L26.8640688,40.8121732 L26.8640688,40.524546 L26.8640688,40.1696019 C26.8518024,40.053648 26.8518024,39.9367314 26.8640688,39.8207774 C26.8640688,39.7045026 26.8640688,39.5882278 26.8640688,39.4780727 L26.8640688,39.135368 L26.9316591,38.7987831 C26.95775,38.5770507 27.0029775,38.35797 27.0668397,38.1439723 L27.1221408,37.9542608 C27.2004231,37.6824802 27.292714,37.4148973 27.3986465,37.1525765 C27.5947439,36.6773258 27.8441587,36.2256779 28.1421398,35.8062366 C29.0126537,34.5166591 30.3221133,33.5841812 31.828883,33.1808738 C31.8966367,33.1574118 31.966649,33.141005 32.0377984,33.131916 C32.066401,33.1290529 32.0952198,33.1290529 32.1238224,33.131916 C32.2037019,33.131916 32.2774367,33.131916 32.3511716,33.0951976 L32.603099,33.0462398 L32.8673156,33.0462398 L33.1069539,33.0462398 L33.1868334,33.0462398 L33.279002,33.0462398 L33.5493631,33.0034017 L34.6123741,32.8442888 L38.9135745,32.1955978 L44.8983876,31.2898782 L46.3976632,36.5406038 C46.5391226,37.0530852 46.8377142,37.5087892 47.2517587,37.8441057 C47.7334099,38.2294575 48.3361484,38.4331699 48.9538051,38.41936 L48.9906726,38.41936 C49.1985211,38.4142561 49.404925,38.3834207 49.6051298,38.3275641 L49.8263343,38.2541274 C50.3970829,38.0400816 50.8721832,37.6298482 51.165851,37.097499 L54.1213902,31.8161747 L54.1213902,31.8161747 L60.6715039,20.023461 C61.365904,18.7844019 60.9236106,17.2193776 59.6822278,16.5229773 Z" id="Path" fill="#132033" fill-rule="nonzero" opacity="0.06"></path>
                    <g id="Path">
                        <use fill="black" fill-opacity="1" filter="url(#filter-8h-es2gp4k-25)" xlink:href="#path-8h-es2gp4k-24"></use>
                        <use fill="url(#linearGradient-8h-es2gp4k-19)" fill-rule="evenodd" xlink:href="#path-8h-es2gp4k-24"></use>
                    </g>
                </g>
                <g id="Group-23" transform="translate(1052.000000, 273.000000)">
                    <g id="Rectangle">
                        <use fill="black" fill-opacity="1" filter="url(#filter-8h-es2gp4k-27)" xlink:href="#path-8h-es2gp4k-26"></use>
                        <use fill="#FFFFFF" fill-rule="evenodd" xlink:href="#path-8h-es2gp4k-26"></use>
                    </g>
                    <g id="ftx-token-ftt-logo" transform="translate(23.000000, 28.000000)" fill-rule="nonzero">
                        <path d="M24.0046489,0.0045062527 C43.3337376,-0.00150208423 62.664039,-0.00150208423 81.9955532,0.0045062527 C82.0014823,6.33592784 82.0014823,12.666257 81.9955532,18.9954937 C62.6659255,19.0015021 43.3356241,19.0015021 24.0046489,18.9954937 C23.9984504,12.6640722 23.9984504,6.33374299 24.0046489,0.0045062527 Z" id="Path" fill="#02A6C2"></path>
                        <path d="M0.0245657889,26.0245655 C6.34043012,25.9918115 12.6573863,25.9918115 18.9754342,26.0245655 C19.0081886,32.3403595 19.0081886,38.6572452 18.9754342,44.9752228 C12.6576592,45.0077038 6.34070307,45.0082497 0.0245657889,44.9768605 C-0.0081885963,38.6599747 -0.0081885963,32.3425431 0.0245657889,26.0245655 Z" id="Path" fill="#5FCADE"></path>
                        <path d="M24.0213632,26.022524 C37.674579,25.992492 51.3268716,25.992492 64.9782412,26.022524 C65.0072529,32.3398858 65.0072529,38.6583396 64.9782412,44.9778855 C51.3252892,45.0073715 37.6729965,45.0073715 24.0213632,44.9778855 C23.9928789,38.6602507 23.9928789,32.3417969 24.0213632,26.022524 Z" id="Path" fill="#5FCADE"></path>
                        <path d="M23.0466669,52.0513574 C29.3489242,51.9828809 35.6500901,51.9828809 41.9501647,52.0513574 C42.0156427,58.3492883 42.0165976,64.6502202 41.9530294,70.954153 C35.6507722,71.0163548 29.3497427,71.0152635 23.0499408,70.9508792 C22.9844628,64.6534939 22.9833715,58.3536533 23.0466669,52.0513574 Z" id="Path" fill="#ABEBF4"></path>
                    </g>
                </g>
                <g id="Group-21" transform="translate(530.000000, 216.000000)" fill="url(#linearGradient-8h-es2gp4k-28)">
                    <path d="M190,0 C294.934102,-1.92760819e-14 380,85.0658975 380,190 C380,294.934102 294.934102,380 190,380 C85.0658975,380 1.28507213e-14,294.934102 0,190 C-1.28507213e-14,85.0658975 85.0658975,1.92760819e-14 190,0 Z" id="surface" transform="translate(190.000000, 190.000000) scale(-1, 1) translate(-190.000000, -190.000000) "></path>
                </g>
            </g>
        </g>
    </g>
</svg>
