<?xml version="1.0" encoding="UTF-8"?>
<svg width="41px" height="53px" viewBox="0 0 41 53" version="1.1" xmlns="http://www.w3.org/2000/svg" xmlns:xlink="http://www.w3.org/1999/xlink">
    <title>9603847431548336153@1x</title>
    <defs>
        <linearGradient x1="20.0783197%" y1="0%" x2="79.8332866%" y2="99.8522915%" id="linearGradient-1">
            <stop stop-color="#00FFAA" offset="0%"></stop>
            <stop stop-color="#4579F5" offset="53.0854096%"></stop>
            <stop stop-color="#9C42F5" offset="99.9815245%"></stop>
        </linearGradient>
    </defs>
    <g id="03_ui_kit" stroke="none" stroke-width="1" fill="none" fill-rule="evenodd">
        <g id="03_icons" transform="translate(-497.000000, -816.000000)">
            <g id="9603847431548336153" transform="translate(497.000000, 816.000000)">
                <path d="M19.5238095,37.1287519 L19.5238095,42.2213602 C19.5238095,42.7536661 19.9766323,43.1851852 20.5,43.1851852 C21.0391352,43.1851852 21.4761905,42.7378642 21.4761905,42.2213602 L21.4761905,37.1287519 C22.6136402,36.7245421 23.4285714,35.6338816 23.4285714,34.3518519 C23.4285714,32.7256799 22.1174055,31.4074074 20.5,31.4074074 C18.8825945,31.4074074 17.5714286,32.7256799 17.5714286,34.3518519 C17.5714286,35.6338816 18.3863598,36.7245421 19.5238095,37.1287519 L19.5238095,37.1287519 Z M5.85714286,21.5926171 L5.85714286,14.7207206 C5.85714286,6.5890873 12.4129734,0 20.5,0 C28.5705712,0 35.1428571,6.5906911 35.1428571,14.7207206 L35.1428571,21.5926171 C38.3821443,21.6019143 41,24.2432156 41,27.5000857 L41,47.0925069 C41,50.3762427 38.3699861,53 35.1256996,53 L5.87430036,53 C2.62710466,53 0,50.3551253 0,47.0925069 L0,27.5000857 C0,24.2221405 2.62074634,21.6018484 5.85714286,21.5926171 L5.85714286,21.5926171 L5.85714286,21.5926171 Z" id="lock" fill="url(#linearGradient-1)"></path>
                <path d="M12,21 L12,14.0017074 C12,9.0184956 15.8055796,5 20.5,5 C25.1848681,5 29,9.03020164 29,14.0017074 L29,21 L12,21 L12,21 L12,21 Z" id="lock-path" fill="#FFFFFF" fill-rule="nonzero"></path>
            </g>
        </g>
    </g>
</svg>