<?xml version="1.0" encoding="UTF-8"?>
<svg width="161px" height="205px" viewBox="0 0 161 205" version="1.1" xmlns="http://www.w3.org/2000/svg" xmlns:xlink="http://www.w3.org/1999/xlink">
    <title>Shape</title>
    <g id="01_main" stroke="none" stroke-width="1" fill="none" fill-rule="evenodd">
        <g id="4.-Survey-Employees" transform="translate(-266.000000, -217.000000)" fill="#FFFFFF">
            <g id="Group-5" transform="translate(164.000000, 144.000000)">
                <path d="M262.662798,167.80343 L229.913332,167.80343 C229.332605,163.028209 228.088215,158.357923 226.216351,153.928396 C223.538028,147.498447 219.538999,141.705926 214.479548,136.927852 C209.097046,131.890954 202.778204,127.965272 195.883286,125.374626 C188.005212,122.425309 179.649294,120.968082 171.240454,121.077049 L134.593569,121.077049 L134.593569,167.80343 L118.346894,167.80343 L118.346894,104.735094 L171.240454,104.735094 C181.66462,104.620219 192.01897,106.452341 201.773958,110.137762 C210.652452,113.489584 218.781574,118.56935 225.692983,125.0844 C232.360859,131.409858 237.646603,139.053656 241.215851,147.532262 C241.783761,148.894092 242.329399,150.244759 242.774819,151.617751 L259.823249,151.617751 C258.85006,148.055987 257.64484,144.562053 256.215351,141.158454 C251.771904,130.618752 245.19729,121.116754 236.906418,113.25211 C228.449428,105.27233 218.50481,99.0437418 207.642359,94.9232235 C207.397379,94.8227607 207.130127,94.7334604 206.874011,94.6441601 L206.874011,73 L190.727556,73 L190.727556,90.1456575 C185.29986,89.1639944 179.805131,88.6004987 174.291578,88.4601143 L174.291578,73 L158.122851,73 L158.122851,88.3931391 L102,88.3931391 L102,183.977947 L125.384521,183.977947 L125.384521,183.977947 L134.560162,183.977947 L134.560162,230.726654 L171.240454,230.726654 C179.606774,230.830962 187.917785,229.354067 195.738524,226.373264 C202.662385,223.720465 209.007804,219.747787 214.423871,214.674925 C219.495297,209.88302 223.498812,204.070479 226.171809,197.618568 C227.997047,193.257501 229.225657,188.669061 229.824248,183.977947 L246.237955,183.977947 C245.541,190.851031 243.837534,197.583656 241.182444,203.958889 C237.629131,212.482069 232.342388,220.169129 225.659576,226.52954 C218.741009,233.03792 210.629539,238.14028 201.773958,241.554315 C192.040674,245.336689 181.67908,247.230701 171.240454,247.135584 L118.346894,247.135584 L118.346894,200.252927 L102,200.252927 L102,263.432889 L158.122851,263.432889 L158.122851,278 L174.280442,278 L174.280442,263.354751 C179.799764,263.230625 185.300046,262.659476 190.727556,261.646883 L190.727556,278 L206.874011,278 L206.874011,257.10373 C207.174669,256.992105 207.475327,256.902804 207.76485,256.780016 C218.577834,252.590687 228.478053,246.339686 236.917553,238.372992 C245.235901,230.46679 251.81298,220.904197 256.226486,210.29921 C260.765557,199.39601 263.068106,187.688261 262.998466,175.873945 L262.998466,175.460931 C262.998466,172.915873 262.863236,170.337326 262.662798,167.80343 Z M213.993057,174.952047 C214.072583,180.260076 213.063847,185.528557 211.028412,190.435963 C209.221478,194.844851 206.480118,198.814426 202.991178,202.074128 C199.031845,205.71686 194.399772,208.561194 189.351553,210.44957 C183.360015,212.693659 176.995531,213.78931 170.59425,213.678656 L149.999543,213.678656 L149.999543,136.315135 L170.59425,136.315135 C177.070805,136.215056 183.510216,137.305989 189.588273,139.533009 C194.564654,141.359589 199.127717,144.149086 203.013723,147.740269 C206.492667,150.993358 209.2362,154.945228 211.062229,159.333585 C213.08741,164.144821 214.085446,169.322113 213.993057,174.537199 L213.993057,174.952047 Z" id="Shape"></path>
            </g>
        </g>
    </g>
</svg>