<?xml version="1.0" encoding="UTF-8"?>
<svg width="37px" height="40px" viewBox="0 0 37 40" version="1.1" xmlns="http://www.w3.org/2000/svg" xmlns:xlink="http://www.w3.org/1999/xlink">
    <title>Group 3@1x</title>
    <defs>
        <linearGradient x1="7.21875%" y1="0%" x2="92.6548669%" y2="99.8522915%" id="linearGradient-1">
            <stop stop-color="#00FFAA" offset="0%"></stop>
            <stop stop-color="#4579F5" offset="53.0854096%"></stop>
            <stop stop-color="#9C42F5" offset="99.9815245%"></stop>
        </linearGradient>
    </defs>
    <g id="03_ui_kit" stroke="none" stroke-width="1" fill="none" fill-rule="evenodd">
        <g id="03_icons" transform="translate(-835.000000, -818.000000)">
            <g id="Group-3" transform="translate(835.000000, 818.000000)">
                <path d="M36.9710667,10.017484 L36.9553191,9.60017542 C36.9344443,8.89019683 36.628464,8.21733285 36.1115385,7.74167489 C35.5918664,7.25770769 34.911788,7.01323131 34.1998481,7.04794548 C33.9282929,7.06364072 33.6514274,7.0773048 33.374745,7.0773048 C28.6680314,7.0773048 24.0719175,4.85725991 20.4331137,0.823584399 C19.4417448,-0.274528133 17.5564225,-0.274528133 16.5650536,0.823584399 C12.9262498,4.85707526 8.33013595,7.0773048 3.62342236,7.0773048 C3.34399329,7.0773048 3.0673109,7.06419467 2.79264274,7.04794548 C2.09370383,7.01323131 1.40300496,7.26066209 0.883332802,7.74167489 C0.366407325,8.22305699 0.0633567888,8.89278192 0.0421157845,9.60017542 L0.0291148249,10.017484 C0.0159307533,10.3790284 0,10.7381723 0,11.0997167 C0,24.785408 6.03317768,34.7005499 17.4450904,39.773804 C17.7798193,39.9252168 18.1412826,40 18.5,40 C18.8587158,40 19.2198129,39.9254015 19.5549081,39.773804 C30.967187,34.7005499 37,24.7850387 37,11.0997167 C37,10.7381723 36.9840677,10.379213 36.9710667,10.017484 Z" id="Path" fill="url(#linearGradient-1)"></path>
                <path d="M25,22.978432 C25,25.9756289 23.0189861,27.8009146 20.0768827,28.1776135 L20.0768827,29.3791816 C20.0768827,30.2757066 19.3692497,31 18.5012556,31 C17.6307503,31 16.9231173,30.2757066 16.9231173,29.3791816 L16.9231173,28.042223 C15.42498,27.7530214 13.9709689,27.1560135 12.6871844,26.2115953 C12.2843089,25.9227621 12,25.3841472 12,24.8031651 C12,23.8296426 12.7567817,23.0791921 13.7047769,23.0791921 C14.1776085,23.0791921 14.5080167,23.2464501 14.7458675,23.4188658 C16.0014902,24.3658628 17.3755002,24.9494238 18.9846704,24.9494238 C20.4776058,24.9494238 21.3793222,24.3424688 21.3793222,23.3473943 L21.3793222,23.2945275 C21.3793222,22.3501093 20.8083727,21.8619665 18.0368546,21.1326996 C14.6970776,20.259937 12.5429671,19.3077823 12.5429671,15.9257815 L12.5429671,15.8780724 C12.5429671,13.2468905 14.307117,11.3843954 16.9213235,10.888516 L16.9213235,9.61805528 C16.9213235,8.723925 17.6264453,8 18.4994619,8 C19.3701465,8 20.0752684,8.72410921 20.0752684,9.61805528 L20.0752684,10.8990157 C21.3771697,11.1191405 22.5576345,11.5702581 23.6008776,12.2543949 C24.0037531,12.4957032 24.4066286,13.0052138 24.4066286,13.7372438 C24.4066286,14.7081875 23.6498468,15.4639799 22.7018517,15.4639799 C22.342923,15.4639799 22.0611254,15.3657988 21.7771753,15.193383 C20.56819,14.4665108 19.4320308,14.0502078 18.2928223,14.0502078 C16.8953142,14.0502078 16.1616718,14.7056086 16.1616718,15.5330568 L16.1616718,15.5861078 C16.1616718,16.7029417 16.8718161,17.0689567 19.7389409,17.8223545 C23.0995253,18.7216425 24.9955156,19.9628146 24.9955156,22.9283283 L24.9955156,22.9786162 L25,22.9786162 L25,22.978432 Z" id="Path" fill="#FFFFFF"></path>
            </g>
        </g>
    </g>
</svg>