<?xml version="1.0" encoding="UTF-8"?>
<svg width="27px" height="33px" viewBox="0 0 27 33" version="1.1" xmlns="http://www.w3.org/2000/svg" xmlns:xlink="http://www.w3.org/1999/xlink">
    <title>Shape</title>
    <defs>
        <linearGradient x1="18.4315765%" y1="0%" x2="81.475165%" y2="99.8522915%" id="linearGradient-1">
            <stop stop-color="#00FFAA" offset="0%"></stop>
            <stop stop-color="#4579F5" offset="53.0854096%"></stop>
            <stop stop-color="#9C42F5" offset="99.9815245%"></stop>
        </linearGradient>
    </defs>
    <g id="03_ui_kit" stroke="none" stroke-width="1" fill="none" fill-rule="evenodd">
        <g id="06_logos" transform="translate(-187.000000, -775.000000)" fill="url(#linearGradient-1)">
            <g id="Ресурс-1" transform="translate(165.000000, 775.000000)">
                <path d="M48.4136392,14.8464245 L43.224785,14.8464245 C43.1327741,14.0986143 42.9356118,13.3672374 42.639032,12.6735638 C42.2146762,11.6666197 41.5810665,10.7594983 40.7794426,10.0112414 C39.9266342,9.22245223 38.9254713,8.60768183 37.8330344,8.2019809 C36.5848255,7.7401115 35.2609065,7.51190656 33.9286025,7.52897096 L28.1222376,7.52897096 L28.1222376,14.8464245 L25.5481001,14.8464245 L25.5481001,4.9697851 L33.9286025,4.9697851 C35.5802165,4.95179543 37.2207688,5.2387098 38.7663578,5.81585475 C40.1730741,6.34075741 41.4610594,7.13625983 42.5561091,8.15653088 C43.6125733,9.14711151 44.4500513,10.344147 45.015566,11.6719153 C45.1055462,11.8851808 45.1919977,12.0966982 45.2625703,12.3117117 L47.9637386,12.3117117 C47.8095457,11.7539317 47.6185895,11.206774 47.3921001,10.6737629 C46.6880765,9.02322258 45.6463888,7.53518895 44.3327756,6.30356844 C42.9928427,5.05391746 41.4172087,4.07850691 39.6961524,3.43322474 C39.6573375,3.41749204 39.6149939,3.40350742 39.5744146,3.3895228 L39.5744146,0 L37.016156,0 L37.016156,2.68504746 C36.1561871,2.53131686 35.2855974,2.4430722 34.4120252,2.42108771 L34.4120252,0 L31.8502379,0 L31.8502379,2.41059925 L22.9580838,2.41059925 L22.9580838,17.3793892 L26.663148,17.3793892 L26.663148,17.3793892 L28.1169447,17.3793892 L28.1169447,24.7003389 L33.9286025,24.7003389 C35.2541695,24.7166737 36.5709736,24.4853888 37.8100983,24.0185886 C38.9071209,23.6031544 39.9124947,22.9810243 40.7706211,22.1866031 C41.5741424,21.4361803 42.2084627,20.5259237 42.6319747,19.5155402 C42.9211671,18.8325877 43.1158291,18.1140279 43.2106705,17.3793892 L45.8112727,17.3793892 C45.7008465,18.4557291 45.4309478,19.510073 45.0102731,20.5084484 C44.4472829,21.843197 43.6096468,23.0470074 42.5508162,24.0430617 C41.4546323,25.0622882 40.1694438,25.861329 38.7663578,26.3959744 C37.2242076,26.9883023 35.5825076,27.2849088 33.9286025,27.2700132 L25.5481001,27.2700132 L25.5481001,19.9280866 L22.9580838,19.9280866 L22.9580838,29.8222068 L31.8502379,29.8222068 L31.8502379,32.1034483 L34.4102608,32.1034483 L34.4102608,29.8099702 C35.284747,29.7905319 36.1562166,29.7010886 37.016156,29.5425143 L37.016156,32.1034483 L39.5744146,32.1034483 L39.5744146,28.8310467 C39.6220512,28.8135659 39.6696877,28.7995813 39.7155599,28.7803524 C41.4287786,28.1242944 42.9973781,27.1453739 44.33454,25.8977722 C45.6525064,24.6596436 46.6945845,23.1621207 47.3938644,21.5013566 C48.1130387,19.7938916 48.4778566,17.9604325 48.4668229,16.1102847 L48.4668229,16.0456059 C48.4668229,15.6470441 48.4453969,15.2432382 48.4136392,14.8464245 Z M40.7212202,16.115529 C40.7336672,16.943103 40.5757837,17.7645112 40.257205,18.5296244 C39.9743906,19.2170134 39.5453233,19.8359093 38.9992475,20.3441291 C38.3795477,20.912067 37.6545531,21.3555268 36.8644248,21.6499432 C35.9266519,21.9998188 34.930507,22.1706416 33.9286025,22.1533896 L30.7051966,22.1533896 L30.7051966,10.091653 L33.9286025,10.091653 C34.9422886,10.0760497 35.9501609,10.2461369 36.9014754,10.5933513 C37.6803598,10.8781332 38.3945533,11.3130434 39.0027761,11.8729442 C39.5472874,12.3801329 39.9766949,12.9962684 40.262498,13.6804566 C40.5794717,14.4305757 40.7356806,15.2377666 40.7212202,16.0508501 L40.7212202,16.115529 Z" id="Shape"></path>
            </g>
        </g>
    </g>
</svg>