<?xml version="1.0" standalone="no"?>
<!DOCTYPE svg PUBLIC "-//W3C//DTD SVG 20010904//EN"
 "http://www.w3.org/TR/2001/REC-SVG-20010904/DTD/svg10.dtd">
<svg version="1.0" xmlns="http://www.w3.org/2000/svg"
 width="1056.000000pt" height="1056.000000pt" viewBox="0 0 1056.000000 1056.000000"
 preserveAspectRatio="xMidYMid meet">
<metadata>
Created by potrace 1.14, written by Peter Selinger 2001-2017
</metadata>
<g transform="translate(0.000000,1056.000000) scale(0.100000,-0.100000)"
fill="#000000" stroke="none">
<path d="M4113 10180 c0 -209 -3 -383 -6 -386 -3 -3 -643 -6 -1421 -6 -779 0
-1416 -3 -1417 -6 -1 -4 -2 -1081 -2 -2395 l-2 -2387 30 -1 c181 -3 365 0 374
5 6 4 16 4 22 0 14 -8 604 -8 618 0 6 4 16 4 22 0 6 -3 140 -7 297 -8 l287 -1
2 -1145 c1 -630 2 -1156 2 -1170 l1 -25 1023 1 c562 1 1065 5 1117 9 52 4 109
8 125 9 17 2 48 6 70 9 22 4 58 9 80 12 42 6 74 11 115 20 14 3 36 7 50 10 14
3 36 7 50 10 14 3 36 8 50 11 14 3 56 14 95 25 38 11 79 22 89 24 11 3 49 15
85 27 36 12 68 23 71 23 5 2 17 6 75 28 17 7 32 12 35 13 8 1 63 24 105 44 22
10 58 26 80 36 22 10 66 33 98 51 31 17 57 30 57 27 0 -3 15 6 33 20 17 13 34
24 37 24 10 -2 173 103 178 115 2 4 8 7 13 7 8 0 121 82 175 127 112 95 244
221 315 303 23 27 89 108 101 125 4 5 26 33 48 62 22 29 40 54 40 57 0 2 17
30 39 62 36 54 164 290 161 296 0 2 12 32 29 68 51 115 124 339 147 455 2 11
11 54 19 96 9 42 15 80 14 85 -1 5 0 12 1 17 1 4 3 13 4 20 1 9 34 13 121 15
66 1 125 2 130 3 6 0 94 -1 196 -2 102 -1 191 1 197 5 7 4 17 4 24 0 7 -4 47
-7 90 -6 l78 1 -5 -42 c-12 -90 -25 -177 -29 -197 -1 -8 -7 -37 -11 -65 -11
-63 -10 -57 -18 -80 -3 -11 -9 -32 -12 -47 -3 -16 -8 -40 -11 -55 -3 -16 -16
-66 -30 -113 -14 -47 -27 -89 -28 -95 -2 -5 -6 -17 -9 -25 -3 -8 -11 -33 -17
-55 -43 -144 -222 -535 -254 -557 -6 -4 -7 -8 -3 -8 8 0 3 -10 -33 -65 -11
-16 -23 -37 -27 -45 -24 -54 -193 -285 -302 -415 -70 -84 -278 -295 -332 -339
-60 -48 -144 -122 -147 -128 -2 -5 -10 -8 -17 -8 -7 0 -15 -4 -17 -8 -1 -4
-37 -33 -79 -64 -301 -222 -678 -415 -1039 -533 -63 -20 -122 -40 -130 -43 -8
-3 -19 -6 -25 -7 -5 -2 -30 -8 -55 -16 -72 -20 -104 -28 -135 -35 -11 -2 -47
-10 -80 -18 -33 -9 -75 -18 -94 -21 -19 -3 -43 -7 -55 -10 -12 -2 -37 -7 -56
-10 -19 -2 -44 -7 -56 -9 -12 -2 -45 -7 -75 -11 -30 -4 -65 -9 -79 -10 -29 -4
-132 -15 -210 -22 -120 -10 -3009 -9 -3013 1 -2 6 -3 534 -2 1173 0 773 -3
1163 -10 1164 -58 5 -800 2 -808 -3 -15 -9 -17 -3156 -2 -3161 6 -1 646 -3
1423 -2 1263 1 1412 -1 1413 -15 0 -8 1 -171 1 -362 0 -192 3 -348 7 -349 8
-1 771 -1 796 0 20 1 20 7 18 366 l-2 365 32 1 c102 3 312 17 368 23 20 3 59
7 85 10 118 14 142 18 189 26 28 6 65 11 83 12 19 1 35 5 38 9 2 4 12 5 22 2
16 -4 17 -29 17 -396 -1 -216 1 -399 4 -407 5 -13 60 -15 409 -15 221 0 403 2
403 5 1 3 2 239 3 525 l1 519 50 18 c28 10 59 23 70 28 56 26 115 50 121 50
19 0 414 203 504 260 8 5 40 24 70 41 30 18 71 45 91 61 20 15 42 28 48 28 6
0 11 5 11 10 0 6 6 10 13 10 8 0 22 9 32 20 10 11 24 20 31 20 7 0 14 4 16 8
2 4 39 34 83 67 44 32 88 66 98 76 10 11 21 19 25 19 4 0 29 20 55 45 26 24
47 42 47 39 0 -9 212 189 289 270 25 26 62 65 81 85 19 20 60 66 90 101 30 36
57 67 60 70 3 3 28 34 55 70 28 36 53 67 58 68 4 2 7 10 7 18 0 8 3 14 8 14 4
0 18 17 32 37 14 20 31 43 38 50 7 7 11 13 7 13 -3 0 12 24 33 52 93 127 281
470 365 668 58 135 75 180 71 180 -2 0 3 14 11 31 12 23 74 203 91 264 28 100
67 246 70 265 3 14 7 33 10 42 5 18 10 39 18 89 3 19 8 45 11 59 3 14 8 39 10
55 3 17 7 46 11 65 3 19 7 46 9 60 2 14 6 48 10 75 9 63 12 96 22 220 9 109
10 594 1 690 l-5 60 -831 3 -832 2 -1 23 c-2 27 -6 55 -12 83 -3 12 -8 37 -11
55 -6 34 -41 188 -51 222 -3 9 -7 26 -9 37 -3 10 -14 39 -24 64 -11 24 -18 46
-16 49 2 2 -4 24 -15 48 -18 42 -32 79 -36 89 -27 78 -102 222 -220 418 -19
32 -50 77 -55 82 -3 3 -17 21 -30 40 -13 19 -27 37 -30 40 -3 3 -15 17 -26 32
-83 108 -224 251 -358 363 -27 22 -63 52 -81 68 -18 15 -37 27 -43 27 -6 0
-12 4 -14 9 -1 5 -50 40 -108 77 -131 86 -133 87 -200 121 -30 15 -57 31 -60
34 -7 8 -161 80 -200 94 -3 1 -23 10 -45 20 -110 49 -390 134 -555 169 -127
26 -134 28 -160 31 -14 1 -25 3 -25 4 0 2 -16 4 -35 6 -19 1 -53 6 -74 9 -36
6 -68 9 -231 21 -114 9 -2089 5 -2098 -4 -8 -8 -14 -431 -7 -466 1 -5 2 -14 1
-20 -4 -20 -2 -991 2 -1010 3 -11 2 -24 -1 -29 -3 -5 -5 -188 -4 -407 l1 -399
-409 0 c-317 0 -409 3 -412 13 -2 6 -4 716 -3 1577 l0 1565 1500 0 c825 0
1536 -4 1580 -8 90 -8 141 -15 200 -24 22 -3 51 -7 65 -8 61 -7 129 -18 185
-31 33 -7 78 -16 100 -20 22 -3 44 -8 49 -11 4 -3 20 -7 35 -8 14 -2 62 -13
106 -25 44 -12 84 -23 90 -25 25 -5 131 -38 140 -44 6 -3 12 -6 15 -7 36 -7
137 -42 225 -79 17 -6 62 -25 100 -41 124 -51 439 -214 467 -242 7 -7 18 -12
25 -12 7 0 13 -4 13 -10 0 -5 4 -10 10 -10 13 0 273 -178 290 -200 3 -3 20
-16 38 -29 19 -13 43 -33 55 -45 13 -11 47 -41 76 -66 85 -71 213 -200 348
-353 76 -86 263 -346 263 -366 0 -5 4 -11 8 -13 11 -4 70 -105 140 -238 80
-153 173 -370 176 -415 1 -6 156 -11 439 -13 241 -1 436 2 433 6 -3 5 -7 19
-10 33 -2 13 -23 78 -45 144 -56 169 -62 185 -83 232 -10 24 -18 45 -18 48 0
6 -30 75 -81 183 -21 46 -39 87 -39 93 0 5 -5 9 -12 9 -6 0 -8 3 -5 7 4 3 3
11 -2 17 -4 6 -25 43 -46 81 -21 39 -51 95 -68 125 -41 74 -178 284 -189 288
-4 2 -8 9 -8 15 0 7 -11 24 -25 39 -14 15 -25 32 -25 38 0 5 -4 10 -8 10 -4 0
-16 13 -25 30 -10 16 -23 35 -30 42 -11 12 -84 100 -117 142 -81 102 -324 344
-483 481 -87 75 -285 225 -296 225 -5 0 -11 4 -13 9 -5 14 -258 178 -383 248
-131 73 -472 239 -510 248 -5 1 -19 6 -30 10 -11 5 -45 18 -75 30 l-55 21 0
542 0 542 -410 0 -410 0 0 -427 c0 -422 0 -428 -20 -426 -63 7 -103 13 -125
17 -14 3 -45 8 -70 11 -25 3 -61 7 -80 10 -19 3 -56 7 -82 10 -27 3 -69 7 -94
10 -46 5 -187 14 -299 18 l-60 2 -2 375 c-1 206 -2 381 -2 388 -1 9 -90 12
-410 12 l-408 0 0 -380z m987 -2863 c14 -3 48 -8 75 -11 28 -3 51 -6 53 -7 1
-1 11 -3 22 -4 11 -1 23 -4 28 -5 4 -1 14 -3 22 -4 91 -10 381 -92 467 -132
17 -7 35 -14 40 -14 4 0 25 -9 46 -20 20 -11 37 -17 37 -13 0 5 4 3 8 -3 4 -5
25 -18 47 -28 139 -64 372 -231 499 -360 83 -84 206 -236 206 -255 0 -6 3 -11
8 -11 7 0 47 -64 40 -66 -1 -1 4 -10 14 -20 17 -20 87 -164 115 -238 24 -64
80 -257 88 -301 4 -22 9 -53 11 -70 2 -16 8 -52 12 -80 9 -64 9 -441 0 -520
-13 -104 -38 -235 -58 -300 -84 -272 -172 -446 -317 -628 -51 -63 -175 -192
-219 -227 -10 -8 -39 -31 -64 -51 -50 -40 -177 -129 -184 -129 -3 0 -24 -13
-48 -28 -24 -16 -58 -35 -75 -43 -18 -8 -33 -17 -33 -20 0 -6 -25 -16 -59 -24
-8 -2 -17 -7 -20 -12 -3 -4 -13 -9 -21 -11 -8 -2 -32 -12 -55 -22 -40 -18
-177 -68 -205 -76 -8 -2 -67 -17 -130 -33 -63 -17 -131 -33 -150 -36 -20 -3
-45 -7 -56 -9 -12 -2 -45 -7 -75 -11 -30 -4 -67 -10 -84 -12 -57 -9 -1329 -13
-1335 -4 -4 7 -6 3838 -1 3849 2 6 1326 -5 1351 -11z"/>
</g>
</svg>
